<svg xmlns="http://www.w3.org/2000/svg" viewBox="0 0 1180 220" width="1180" height="220">
  <rect width="1180" height="220" fill="#05081A"/>
  <g transform="translate(40, 38)">
    <svg width="144" height="144" viewBox="0 0 144 144">
      <rect width="144" height="144" rx="25.92" fill="#05081A"/>
  <rect x="11.21" y="11.21" width="6.09" height="6.09" rx="1.10" fill="#1D2538"/>
  <rect x="21.70" y="11.21" width="6.09" height="6.09" rx="1.10" fill="#1D2538"/>
  <rect x="32.20" y="11.21" width="6.09" height="6.09" rx="1.10" fill="#1D2538"/>
  <rect x="42.70" y="11.21" width="6.09" height="6.09" rx="1.10" fill="#1D2538"/>
  <rect x="53.20" y="11.21" width="6.09" height="6.09" rx="1.10" fill="#1D2538"/>
  <rect x="63.70" y="11.21" width="6.09" height="6.09" rx="1.10" fill="#1D2538"/>
  <rect x="74.20" y="11.21" width="6.09" height="6.09" rx="1.10" fill="#1D2538"/>
  <rect x="84.70" y="11.21" width="6.09" height="6.09" rx="1.10" fill="#1D2538"/>
  <rect x="95.20" y="11.21" width="6.09" height="6.09" rx="1.10" fill="#1D2538"/>
  <rect x="105.70" y="11.21" width="6.09" height="6.09" rx="1.10" fill="#1D2538"/>
  <rect x="116.20" y="11.21" width="6.09" height="6.09" rx="1.10" fill="#1D2538"/>
  <rect x="126.70" y="11.21" width="6.09" height="6.09" rx="1.10" fill="#1D2538"/>
  <rect x="11.21" y="21.70" width="6.09" height="6.09" rx="1.10" fill="#1D2538"/>
  <rect x="21.70" y="21.70" width="6.09" height="6.09" rx="1.10" fill="#1D2538"/>
  <rect x="32.20" y="21.70" width="6.09" height="6.09" rx="1.10" fill="#1D2538"/>
  <rect x="42.70" y="21.70" width="6.09" height="6.09" rx="1.10" fill="#1D2538"/>
  <rect x="53.20" y="21.70" width="6.09" height="6.09" rx="1.10" fill="#1D2538"/>
  <rect x="63.70" y="21.70" width="6.09" height="6.09" rx="1.10" fill="#1D2538"/>
  <rect x="74.20" y="21.70" width="6.09" height="6.09" rx="1.10" fill="#1D2538"/>
  <rect x="84.70" y="21.70" width="6.09" height="6.09" rx="1.10" fill="#1D2538"/>
  <rect x="95.20" y="21.70" width="6.09" height="6.09" rx="1.10" fill="#1D2538"/>
  <rect x="105.70" y="21.70" width="6.09" height="6.09" rx="1.10" fill="#1D2538"/>
  <rect x="116.20" y="21.70" width="6.09" height="6.09" rx="1.10" fill="#1D2538"/>
  <rect x="126.70" y="21.70" width="6.09" height="6.09" rx="1.10" fill="#1D2538"/>
  <rect x="11.21" y="32.20" width="6.09" height="6.09" rx="1.10" fill="#1D2538"/>
  <rect x="21.70" y="32.20" width="6.09" height="6.09" rx="1.10" fill="#1D2538"/>
  <rect x="32.20" y="32.20" width="6.09" height="6.09" rx="1.10" fill="#1D2538"/>
  <rect x="42.70" y="32.20" width="6.09" height="6.09" rx="1.10" fill="#1D2538"/>
  <rect x="53.20" y="32.20" width="6.09" height="6.09" rx="1.10" fill="#1D2538"/>
  <rect x="63.70" y="32.20" width="6.09" height="6.09" rx="1.10" fill="#1D2538"/>
  <rect x="74.20" y="32.20" width="6.09" height="6.09" rx="1.10" fill="#1D2538"/>
  <rect x="84.70" y="32.20" width="6.09" height="6.09" rx="1.10" fill="#1D2538"/>
  <rect x="95.20" y="32.20" width="6.09" height="6.09" rx="1.10" fill="#1D2538"/>
  <rect x="105.70" y="32.20" width="6.09" height="6.09" rx="1.10" fill="#1D2538"/>
  <rect x="116.20" y="32.20" width="6.09" height="6.09" rx="1.10" fill="#1D2538"/>
  <rect x="126.70" y="32.20" width="6.09" height="6.09" rx="1.10" fill="#1D2538"/>
  <rect x="11.21" y="42.70" width="6.09" height="6.09" rx="1.10" fill="#1D2538"/>
  <rect x="21.70" y="42.70" width="6.09" height="6.09" rx="1.10" fill="#1D2538"/>
  <rect x="32.20" y="42.70" width="6.09" height="6.09" rx="1.10" fill="#1D2538"/>
  <rect x="42.70" y="42.70" width="6.09" height="6.09" rx="1.10" fill="#1D2538"/>
  <rect x="53.20" y="42.70" width="6.09" height="6.09" rx="1.10" fill="#1D2538"/>
  <rect x="63.70" y="42.70" width="6.09" height="6.09" rx="1.10" fill="#15803D"/>
  <rect x="74.20" y="42.70" width="6.09" height="6.09" rx="1.10" fill="#15803D"/>
  <rect x="84.70" y="42.70" width="6.09" height="6.09" rx="1.10" fill="#1D2538"/>
  <rect x="95.20" y="42.70" width="6.09" height="6.09" rx="1.10" fill="#1D2538"/>
  <rect x="105.70" y="42.70" width="6.09" height="6.09" rx="1.10" fill="#1D2538"/>
  <rect x="116.20" y="42.70" width="6.09" height="6.09" rx="1.10" fill="#1D2538"/>
  <rect x="126.70" y="42.70" width="6.09" height="6.09" rx="1.10" fill="#1D2538"/>
  <rect x="11.21" y="53.20" width="6.09" height="6.09" rx="1.10" fill="#1D2538"/>
  <rect x="21.70" y="53.20" width="6.09" height="6.09" rx="1.10" fill="#1D2538"/>
  <rect x="32.20" y="53.20" width="6.09" height="6.09" rx="1.10" fill="#1D2538"/>
  <rect x="42.70" y="53.20" width="6.09" height="6.09" rx="1.10" fill="#1D2538"/>
  <rect x="53.20" y="53.20" width="6.09" height="6.09" rx="1.10" fill="#1D2538"/>
  <rect x="63.70" y="53.20" width="6.09" height="6.09" rx="1.10" fill="#15803D"/>
  <rect x="74.20" y="53.20" width="6.09" height="6.09" rx="1.10" fill="#15803D"/>
  <rect x="84.70" y="53.20" width="6.09" height="6.09" rx="1.10" fill="#1D2538"/>
  <rect x="95.20" y="53.20" width="6.09" height="6.09" rx="1.10" fill="#1D2538"/>
  <rect x="105.70" y="53.20" width="6.09" height="6.09" rx="1.10" fill="#1D2538"/>
  <rect x="116.20" y="53.20" width="6.09" height="6.09" rx="1.10" fill="#1D2538"/>
  <rect x="126.70" y="53.20" width="6.09" height="6.09" rx="1.10" fill="#1D2538"/>
  <rect x="11.21" y="63.70" width="6.09" height="6.09" rx="1.10" fill="#1D2538"/>
  <rect x="21.70" y="63.70" width="6.09" height="6.09" rx="1.10" fill="#1D2538"/>
  <rect x="32.20" y="63.70" width="6.09" height="6.09" rx="1.10" fill="#1D2538"/>
  <rect x="42.70" y="63.70" width="6.09" height="6.09" rx="1.10" fill="#1D2538"/>
  <rect x="53.20" y="63.70" width="6.09" height="6.09" rx="1.10" fill="#1D2538"/>
  <rect x="63.70" y="63.70" width="6.09" height="6.09" rx="1.10" fill="#21B658"/>
  <rect x="74.20" y="63.70" width="6.09" height="6.09" rx="1.10" fill="#21B658"/>
  <rect x="84.70" y="63.70" width="6.09" height="6.09" rx="1.10" fill="#1D2538"/>
  <rect x="95.20" y="63.70" width="6.09" height="6.09" rx="1.10" fill="#1D2538"/>
  <rect x="105.70" y="63.70" width="6.09" height="6.09" rx="1.10" fill="#1D2538"/>
  <rect x="116.20" y="63.70" width="6.09" height="6.09" rx="1.10" fill="#1D2538"/>
  <rect x="126.70" y="63.70" width="6.09" height="6.09" rx="1.10" fill="#1D2538"/>
  <rect x="11.21" y="74.20" width="6.09" height="6.09" rx="1.10" fill="#1D2538"/>
  <rect x="21.70" y="74.20" width="6.09" height="6.09" rx="1.10" fill="#1D2538"/>
  <rect x="32.20" y="74.20" width="6.09" height="6.09" rx="1.10" fill="#1D2538"/>
  <rect x="42.70" y="74.20" width="6.09" height="6.09" rx="1.10" fill="#1D2538"/>
  <rect x="53.20" y="74.20" width="6.09" height="6.09" rx="1.10" fill="#1D2538"/>
  <rect x="63.70" y="74.20" width="6.09" height="6.09" rx="1.10" fill="#21B658"/>
  <rect x="74.20" y="74.20" width="6.09" height="6.09" rx="1.10" fill="#21B658"/>
  <rect x="84.70" y="74.20" width="6.09" height="6.09" rx="1.10" fill="#1D2538"/>
  <rect x="95.20" y="74.20" width="6.09" height="6.09" rx="1.10" fill="#1D2538"/>
  <rect x="105.70" y="74.20" width="6.09" height="6.09" rx="1.10" fill="#1D2538"/>
  <rect x="116.20" y="74.20" width="6.09" height="6.09" rx="1.10" fill="#1D2538"/>
  <rect x="126.70" y="74.20" width="6.09" height="6.09" rx="1.10" fill="#1D2538"/>
  <rect x="11.21" y="84.70" width="6.09" height="6.09" rx="1.10" fill="#1D2538"/>
  <rect x="21.70" y="84.70" width="6.09" height="6.09" rx="1.10" fill="#1D2538"/>
  <rect x="32.20" y="84.70" width="6.09" height="6.09" rx="1.10" fill="#1D2538"/>
  <rect x="42.70" y="84.70" width="6.09" height="6.09" rx="1.10" fill="#1D2538"/>
  <rect x="53.20" y="84.70" width="6.09" height="6.09" rx="1.10" fill="#1D2538"/>
  <rect x="63.70" y="84.70" width="6.09" height="6.09" rx="1.10" fill="#3DDC84"/>
  <rect x="74.20" y="84.70" width="6.09" height="6.09" rx="1.10" fill="#3DDC84"/>
  <rect x="84.70" y="84.70" width="6.09" height="6.09" rx="1.10" fill="#1D2538"/>
  <rect x="95.20" y="84.70" width="6.09" height="6.09" rx="1.10" fill="#1D2538"/>
  <rect x="105.70" y="84.70" width="6.09" height="6.09" rx="1.10" fill="#1D2538"/>
  <rect x="116.20" y="84.70" width="6.09" height="6.09" rx="1.10" fill="#1D2538"/>
  <rect x="126.70" y="84.70" width="6.09" height="6.09" rx="1.10" fill="#1D2538"/>
  <rect x="11.21" y="95.20" width="6.09" height="6.09" rx="1.10" fill="#1D2538"/>
  <rect x="21.70" y="95.20" width="6.09" height="6.09" rx="1.10" fill="#1D2538"/>
  <rect x="32.20" y="95.20" width="6.09" height="6.09" rx="1.10" fill="#1D2538"/>
  <rect x="42.70" y="95.20" width="6.09" height="6.09" rx="1.10" fill="#1D2538"/>
  <rect x="53.20" y="95.20" width="6.09" height="6.09" rx="1.10" fill="#1D2538"/>
  <rect x="63.70" y="95.20" width="6.09" height="6.09" rx="1.10" fill="#3DDC84"/>
  <rect x="74.20" y="95.20" width="6.09" height="6.09" rx="1.10" fill="#3DDC84"/>
  <rect x="84.70" y="95.20" width="6.09" height="6.09" rx="1.10" fill="#1D2538"/>
  <rect x="95.20" y="95.20" width="6.09" height="6.09" rx="1.10" fill="#1D2538"/>
  <rect x="105.70" y="95.20" width="6.09" height="6.09" rx="1.10" fill="#1D2538"/>
  <rect x="116.20" y="95.20" width="6.09" height="6.09" rx="1.10" fill="#1D2538"/>
  <rect x="126.70" y="95.20" width="6.09" height="6.09" rx="1.10" fill="#1D2538"/>
  <rect x="11.21" y="105.70" width="6.09" height="6.09" rx="1.10" fill="#1D2538"/>
  <rect x="21.70" y="105.70" width="6.09" height="6.09" rx="1.10" fill="#1D2538"/>
  <rect x="32.20" y="105.70" width="6.09" height="6.09" rx="1.10" fill="#1D2538"/>
  <rect x="42.70" y="105.70" width="6.09" height="6.09" rx="1.10" fill="#1D2538"/>
  <rect x="53.20" y="105.70" width="6.09" height="6.09" rx="1.10" fill="#1D2538"/>
  <rect x="63.70" y="105.70" width="6.09" height="6.09" rx="1.10" fill="#3DDC84"/>
  <rect x="74.20" y="105.70" width="6.09" height="6.09" rx="1.10" fill="#3DDC84"/>
  <rect x="84.70" y="105.70" width="6.09" height="6.09" rx="1.10" fill="#1D2538"/>
  <rect x="95.20" y="105.70" width="6.09" height="6.09" rx="1.10" fill="#1D2538"/>
  <rect x="105.70" y="105.70" width="6.09" height="6.09" rx="1.10" fill="#1D2538"/>
  <rect x="116.20" y="105.70" width="6.09" height="6.09" rx="1.10" fill="#1D2538"/>
  <rect x="126.70" y="105.70" width="6.09" height="6.09" rx="1.10" fill="#1D2538"/>
  <rect x="11.21" y="116.20" width="6.09" height="6.09" rx="1.10" fill="#1D2538"/>
  <rect x="21.70" y="116.20" width="6.09" height="6.09" rx="1.10" fill="#1D2538"/>
  <rect x="32.20" y="116.20" width="6.09" height="6.09" rx="1.10" fill="#1D2538"/>
  <rect x="42.70" y="116.20" width="6.09" height="6.09" rx="1.10" fill="#1D2538"/>
  <rect x="53.20" y="116.20" width="6.09" height="6.09" rx="1.10" fill="#1D2538"/>
  <rect x="63.70" y="116.20" width="6.09" height="6.09" rx="1.10" fill="#1D2538"/>
  <rect x="74.20" y="116.20" width="6.09" height="6.09" rx="1.10" fill="#1D2538"/>
  <rect x="84.70" y="116.20" width="6.09" height="6.09" rx="1.10" fill="#1D2538"/>
  <rect x="95.20" y="116.20" width="6.09" height="6.09" rx="1.10" fill="#1D2538"/>
  <rect x="105.70" y="116.20" width="6.09" height="6.09" rx="1.10" fill="#1D2538"/>
  <rect x="116.20" y="116.20" width="6.09" height="6.09" rx="1.10" fill="#1D2538"/>
  <rect x="126.70" y="116.20" width="6.09" height="6.09" rx="1.10" fill="#1D2538"/>
  <rect x="11.21" y="126.70" width="6.09" height="6.09" rx="1.10" fill="#1D2538"/>
  <rect x="21.70" y="126.70" width="6.09" height="6.09" rx="1.10" fill="#1D2538"/>
  <rect x="32.20" y="126.70" width="6.09" height="6.09" rx="1.10" fill="#1D2538"/>
  <rect x="42.70" y="126.70" width="6.09" height="6.09" rx="1.10" fill="#1D2538"/>
  <rect x="53.20" y="126.70" width="6.09" height="6.09" rx="1.10" fill="#1D2538"/>
  <rect x="63.70" y="126.70" width="6.09" height="6.09" rx="1.10" fill="#1D2538"/>
  <rect x="74.20" y="126.70" width="6.09" height="6.09" rx="1.10" fill="#1D2538"/>
  <rect x="84.70" y="126.70" width="6.09" height="6.09" rx="1.10" fill="#1D2538"/>
  <rect x="95.20" y="126.70" width="6.09" height="6.09" rx="1.10" fill="#1D2538"/>
  <rect x="105.70" y="126.70" width="6.09" height="6.09" rx="1.10" fill="#1D2538"/>
  <rect x="116.20" y="126.70" width="6.09" height="6.09" rx="1.10" fill="#1D2538"/>
  <rect x="126.70" y="126.70" width="6.09" height="6.09" rx="1.10" fill="#1D2538"/>
    </svg>
  </g>
  <text x="220" y="160"
        font-family='-apple-system, BlinkMacSystemFont, "Segoe UI", Roboto, "Helvetica Neue", Arial, sans-serif'
        font-size="120"
        font-weight="800"
        letter-spacing="-3"
        fill="#EEF1F8">last</text>
  <text x="458" y="160"
        font-family='-apple-system, BlinkMacSystemFont, "Segoe UI", Roboto, "Helvetica Neue", Arial, sans-serif'
        font-size="120"
        font-weight="800"
        font-style="italic"
        letter-spacing="-2"
        fill="#3DDC84">GLANCE</text>
</svg>