<svg xmlns="http://www.w3.org/2000/svg" width="512" height="512" viewBox="0 0 512 512">
  <rect width="512" height="512" rx="92.16" fill="#05081A"/>
  <rect x="39.84" y="39.84" width="21.65" height="21.65" rx="3.90" fill="#1D2538"/>
  <rect x="77.17" y="39.84" width="21.65" height="21.65" rx="3.90" fill="#1D2538"/>
  <rect x="114.51" y="39.84" width="21.65" height="21.65" rx="3.90" fill="#1D2538"/>
  <rect x="151.84" y="39.84" width="21.65" height="21.65" rx="3.90" fill="#1D2538"/>
  <rect x="189.17" y="39.84" width="21.65" height="21.65" rx="3.90" fill="#1D2538"/>
  <rect x="226.51" y="39.84" width="21.65" height="21.65" rx="3.90" fill="#1D2538"/>
  <rect x="263.84" y="39.84" width="21.65" height="21.65" rx="3.90" fill="#1D2538"/>
  <rect x="301.17" y="39.84" width="21.65" height="21.65" rx="3.90" fill="#1D2538"/>
  <rect x="338.51" y="39.84" width="21.65" height="21.65" rx="3.90" fill="#1D2538"/>
  <rect x="375.84" y="39.84" width="21.65" height="21.65" rx="3.90" fill="#1D2538"/>
  <rect x="413.17" y="39.84" width="21.65" height="21.65" rx="3.90" fill="#1D2538"/>
  <rect x="450.51" y="39.84" width="21.65" height="21.65" rx="3.90" fill="#1D2538"/>
  <rect x="39.84" y="77.17" width="21.65" height="21.65" rx="3.90" fill="#1D2538"/>
  <rect x="77.17" y="77.17" width="21.65" height="21.65" rx="3.90" fill="#1D2538"/>
  <rect x="114.51" y="77.17" width="21.65" height="21.65" rx="3.90" fill="#1D2538"/>
  <rect x="151.84" y="77.17" width="21.65" height="21.65" rx="3.90" fill="#1D2538"/>
  <rect x="189.17" y="77.17" width="21.65" height="21.65" rx="3.90" fill="#1D2538"/>
  <rect x="226.51" y="77.17" width="21.65" height="21.65" rx="3.90" fill="#1D2538"/>
  <rect x="263.84" y="77.17" width="21.65" height="21.65" rx="3.90" fill="#1D2538"/>
  <rect x="301.17" y="77.17" width="21.65" height="21.65" rx="3.90" fill="#1D2538"/>
  <rect x="338.51" y="77.17" width="21.65" height="21.65" rx="3.90" fill="#1D2538"/>
  <rect x="375.84" y="77.17" width="21.65" height="21.65" rx="3.90" fill="#1D2538"/>
  <rect x="413.17" y="77.17" width="21.65" height="21.65" rx="3.90" fill="#1D2538"/>
  <rect x="450.51" y="77.17" width="21.65" height="21.65" rx="3.90" fill="#1D2538"/>
  <rect x="39.84" y="114.51" width="21.65" height="21.65" rx="3.90" fill="#1D2538"/>
  <rect x="77.17" y="114.51" width="21.65" height="21.65" rx="3.90" fill="#1D2538"/>
  <rect x="114.51" y="114.51" width="21.65" height="21.65" rx="3.90" fill="#1D2538"/>
  <rect x="151.84" y="114.51" width="21.65" height="21.65" rx="3.90" fill="#1D2538"/>
  <rect x="189.17" y="114.51" width="21.65" height="21.65" rx="3.90" fill="#1D2538"/>
  <rect x="226.51" y="114.51" width="21.65" height="21.65" rx="3.90" fill="#1D2538"/>
  <rect x="263.84" y="114.51" width="21.65" height="21.65" rx="3.90" fill="#1D2538"/>
  <rect x="301.17" y="114.51" width="21.65" height="21.65" rx="3.90" fill="#1D2538"/>
  <rect x="338.51" y="114.51" width="21.65" height="21.65" rx="3.90" fill="#1D2538"/>
  <rect x="375.84" y="114.51" width="21.65" height="21.65" rx="3.90" fill="#1D2538"/>
  <rect x="413.17" y="114.51" width="21.65" height="21.65" rx="3.90" fill="#1D2538"/>
  <rect x="450.51" y="114.51" width="21.65" height="21.65" rx="3.90" fill="#1D2538"/>
  <rect x="39.84" y="151.84" width="21.65" height="21.65" rx="3.90" fill="#1D2538"/>
  <rect x="77.17" y="151.84" width="21.65" height="21.65" rx="3.90" fill="#1D2538"/>
  <rect x="114.51" y="151.84" width="21.65" height="21.65" rx="3.90" fill="#1D2538"/>
  <rect x="151.84" y="151.84" width="21.65" height="21.65" rx="3.90" fill="#1D2538"/>
  <rect x="189.17" y="151.84" width="21.65" height="21.65" rx="3.90" fill="#1D2538"/>
  <rect x="226.51" y="151.84" width="21.65" height="21.65" rx="3.90" fill="#3DDC84"/>
  <rect x="263.84" y="151.84" width="21.65" height="21.65" rx="3.90" fill="#3DDC84"/>
  <rect x="301.17" y="151.84" width="21.65" height="21.65" rx="3.90" fill="#1D2538"/>
  <rect x="338.51" y="151.84" width="21.65" height="21.65" rx="3.90" fill="#1D2538"/>
  <rect x="375.84" y="151.84" width="21.65" height="21.65" rx="3.90" fill="#1D2538"/>
  <rect x="413.17" y="151.84" width="21.65" height="21.65" rx="3.90" fill="#1D2538"/>
  <rect x="450.51" y="151.84" width="21.65" height="21.65" rx="3.90" fill="#1D2538"/>
  <rect x="39.84" y="189.17" width="21.65" height="21.65" rx="3.90" fill="#1D2538"/>
  <rect x="77.17" y="189.17" width="21.65" height="21.65" rx="3.90" fill="#1D2538"/>
  <rect x="114.51" y="189.17" width="21.65" height="21.65" rx="3.90" fill="#1D2538"/>
  <rect x="151.84" y="189.17" width="21.65" height="21.65" rx="3.90" fill="#1D2538"/>
  <rect x="189.17" y="189.17" width="21.65" height="21.65" rx="3.90" fill="#1D2538"/>
  <rect x="226.51" y="189.17" width="21.65" height="21.65" rx="3.90" fill="#3DDC84"/>
  <rect x="263.84" y="189.17" width="21.65" height="21.65" rx="3.90" fill="#3DDC84"/>
  <rect x="301.17" y="189.17" width="21.65" height="21.65" rx="3.90" fill="#1D2538"/>
  <rect x="338.51" y="189.17" width="21.65" height="21.65" rx="3.90" fill="#1D2538"/>
  <rect x="375.84" y="189.17" width="21.65" height="21.65" rx="3.90" fill="#1D2538"/>
  <rect x="413.17" y="189.17" width="21.65" height="21.65" rx="3.90" fill="#1D2538"/>
  <rect x="450.51" y="189.17" width="21.65" height="21.65" rx="3.90" fill="#1D2538"/>
  <rect x="39.84" y="226.51" width="21.65" height="21.65" rx="3.90" fill="#1D2538"/>
  <rect x="77.17" y="226.51" width="21.65" height="21.65" rx="3.90" fill="#1D2538"/>
  <rect x="114.51" y="226.51" width="21.65" height="21.65" rx="3.90" fill="#1D2538"/>
  <rect x="151.84" y="226.51" width="21.65" height="21.65" rx="3.90" fill="#1D2538"/>
  <rect x="189.17" y="226.51" width="21.65" height="21.65" rx="3.90" fill="#1D2538"/>
  <rect x="226.51" y="226.51" width="21.65" height="21.65" rx="3.90" fill="#3DDC84"/>
  <rect x="263.84" y="226.51" width="21.65" height="21.65" rx="3.90" fill="#3DDC84"/>
  <rect x="301.17" y="226.51" width="21.65" height="21.65" rx="3.90" fill="#1D2538"/>
  <rect x="338.51" y="226.51" width="21.65" height="21.65" rx="3.90" fill="#1D2538"/>
  <rect x="375.84" y="226.51" width="21.65" height="21.65" rx="3.90" fill="#1D2538"/>
  <rect x="413.17" y="226.51" width="21.65" height="21.65" rx="3.90" fill="#1D2538"/>
  <rect x="450.51" y="226.51" width="21.65" height="21.65" rx="3.90" fill="#1D2538"/>
  <rect x="39.84" y="263.84" width="21.65" height="21.65" rx="3.90" fill="#1D2538"/>
  <rect x="77.17" y="263.84" width="21.65" height="21.65" rx="3.90" fill="#1D2538"/>
  <rect x="114.51" y="263.84" width="21.65" height="21.65" rx="3.90" fill="#1D2538"/>
  <rect x="151.84" y="263.84" width="21.65" height="21.65" rx="3.90" fill="#1D2538"/>
  <rect x="189.17" y="263.84" width="21.65" height="21.65" rx="3.90" fill="#1D2538"/>
  <rect x="226.51" y="263.84" width="21.65" height="21.65" rx="3.90" fill="#3DDC84"/>
  <rect x="263.84" y="263.84" width="21.65" height="21.65" rx="3.90" fill="#3DDC84"/>
  <rect x="301.17" y="263.84" width="21.65" height="21.65" rx="3.90" fill="#1D2538"/>
  <rect x="338.51" y="263.84" width="21.65" height="21.65" rx="3.90" fill="#1D2538"/>
  <rect x="375.84" y="263.84" width="21.65" height="21.65" rx="3.90" fill="#1D2538"/>
  <rect x="413.17" y="263.84" width="21.65" height="21.65" rx="3.90" fill="#1D2538"/>
  <rect x="450.51" y="263.84" width="21.65" height="21.65" rx="3.90" fill="#1D2538"/>
  <rect x="39.84" y="301.17" width="21.65" height="21.65" rx="3.90" fill="#1D2538"/>
  <rect x="77.17" y="301.17" width="21.65" height="21.65" rx="3.90" fill="#1D2538"/>
  <rect x="114.51" y="301.17" width="21.65" height="21.65" rx="3.90" fill="#1D2538"/>
  <rect x="151.84" y="301.17" width="21.65" height="21.65" rx="3.90" fill="#1D2538"/>
  <rect x="189.17" y="301.17" width="21.65" height="21.65" rx="3.90" fill="#1D2538"/>
  <rect x="226.51" y="301.17" width="21.65" height="21.65" rx="3.90" fill="#3DDC84"/>
  <rect x="263.84" y="301.17" width="21.65" height="21.65" rx="3.90" fill="#3DDC84"/>
  <rect x="301.17" y="301.17" width="21.65" height="21.65" rx="3.90" fill="#1D2538"/>
  <rect x="338.51" y="301.17" width="21.65" height="21.65" rx="3.90" fill="#1D2538"/>
  <rect x="375.84" y="301.17" width="21.65" height="21.65" rx="3.90" fill="#1D2538"/>
  <rect x="413.17" y="301.17" width="21.65" height="21.65" rx="3.90" fill="#1D2538"/>
  <rect x="450.51" y="301.17" width="21.65" height="21.65" rx="3.90" fill="#1D2538"/>
  <rect x="39.84" y="338.51" width="21.65" height="21.65" rx="3.90" fill="#1D2538"/>
  <rect x="77.17" y="338.51" width="21.65" height="21.65" rx="3.90" fill="#1D2538"/>
  <rect x="114.51" y="338.51" width="21.65" height="21.65" rx="3.90" fill="#1D2538"/>
  <rect x="151.84" y="338.51" width="21.65" height="21.65" rx="3.90" fill="#1D2538"/>
  <rect x="189.17" y="338.51" width="21.65" height="21.65" rx="3.90" fill="#1D2538"/>
  <rect x="226.51" y="338.51" width="21.65" height="21.65" rx="3.90" fill="#3DDC84"/>
  <rect x="263.84" y="338.51" width="21.65" height="21.65" rx="3.90" fill="#3DDC84"/>
  <rect x="301.17" y="338.51" width="21.65" height="21.65" rx="3.90" fill="#1D2538"/>
  <rect x="338.51" y="338.51" width="21.65" height="21.65" rx="3.90" fill="#1D2538"/>
  <rect x="375.84" y="338.51" width="21.65" height="21.65" rx="3.90" fill="#1D2538"/>
  <rect x="413.17" y="338.51" width="21.65" height="21.65" rx="3.90" fill="#1D2538"/>
  <rect x="450.51" y="338.51" width="21.65" height="21.65" rx="3.90" fill="#1D2538"/>
  <rect x="39.84" y="375.84" width="21.65" height="21.65" rx="3.90" fill="#1D2538"/>
  <rect x="77.17" y="375.84" width="21.65" height="21.65" rx="3.90" fill="#1D2538"/>
  <rect x="114.51" y="375.84" width="21.65" height="21.65" rx="3.90" fill="#1D2538"/>
  <rect x="151.84" y="375.84" width="21.65" height="21.65" rx="3.90" fill="#1D2538"/>
  <rect x="189.17" y="375.84" width="21.65" height="21.65" rx="3.90" fill="#1D2538"/>
  <rect x="226.51" y="375.84" width="21.65" height="21.65" rx="3.90" fill="#3DDC84"/>
  <rect x="263.84" y="375.84" width="21.65" height="21.65" rx="3.90" fill="#3DDC84"/>
  <rect x="301.17" y="375.84" width="21.65" height="21.65" rx="3.90" fill="#1D2538"/>
  <rect x="338.51" y="375.84" width="21.65" height="21.65" rx="3.90" fill="#1D2538"/>
  <rect x="375.84" y="375.84" width="21.65" height="21.65" rx="3.90" fill="#1D2538"/>
  <rect x="413.17" y="375.84" width="21.65" height="21.65" rx="3.90" fill="#1D2538"/>
  <rect x="450.51" y="375.84" width="21.65" height="21.65" rx="3.90" fill="#1D2538"/>
  <rect x="39.84" y="413.17" width="21.65" height="21.65" rx="3.90" fill="#1D2538"/>
  <rect x="77.17" y="413.17" width="21.65" height="21.65" rx="3.90" fill="#1D2538"/>
  <rect x="114.51" y="413.17" width="21.65" height="21.65" rx="3.90" fill="#1D2538"/>
  <rect x="151.84" y="413.17" width="21.65" height="21.65" rx="3.90" fill="#1D2538"/>
  <rect x="189.17" y="413.17" width="21.65" height="21.65" rx="3.90" fill="#1D2538"/>
  <rect x="226.51" y="413.17" width="21.65" height="21.65" rx="3.90" fill="#1D2538"/>
  <rect x="263.84" y="413.17" width="21.65" height="21.65" rx="3.90" fill="#1D2538"/>
  <rect x="301.17" y="413.17" width="21.65" height="21.65" rx="3.90" fill="#1D2538"/>
  <rect x="338.51" y="413.17" width="21.65" height="21.65" rx="3.90" fill="#1D2538"/>
  <rect x="375.84" y="413.17" width="21.65" height="21.65" rx="3.90" fill="#1D2538"/>
  <rect x="413.17" y="413.17" width="21.65" height="21.65" rx="3.90" fill="#1D2538"/>
  <rect x="450.51" y="413.17" width="21.65" height="21.65" rx="3.90" fill="#1D2538"/>
  <rect x="39.84" y="450.51" width="21.65" height="21.65" rx="3.90" fill="#1D2538"/>
  <rect x="77.17" y="450.51" width="21.65" height="21.65" rx="3.90" fill="#1D2538"/>
  <rect x="114.51" y="450.51" width="21.65" height="21.65" rx="3.90" fill="#1D2538"/>
  <rect x="151.84" y="450.51" width="21.65" height="21.65" rx="3.90" fill="#1D2538"/>
  <rect x="189.17" y="450.51" width="21.65" height="21.65" rx="3.90" fill="#1D2538"/>
  <rect x="226.51" y="450.51" width="21.65" height="21.65" rx="3.90" fill="#1D2538"/>
  <rect x="263.84" y="450.51" width="21.65" height="21.65" rx="3.90" fill="#1D2538"/>
  <rect x="301.17" y="450.51" width="21.65" height="21.65" rx="3.90" fill="#1D2538"/>
  <rect x="338.51" y="450.51" width="21.65" height="21.65" rx="3.90" fill="#1D2538"/>
  <rect x="375.84" y="450.51" width="21.65" height="21.65" rx="3.90" fill="#1D2538"/>
  <rect x="413.17" y="450.51" width="21.65" height="21.65" rx="3.90" fill="#1D2538"/>
  <rect x="450.51" y="450.51" width="21.65" height="21.65" rx="3.90" fill="#1D2538"/>
</svg>