<svg xmlns="http://www.w3.org/2000/svg" width="512" height="512" viewBox="0 0 512 512">
  <rect width="512" height="512" rx="0.00" fill="#05081A"/>
  <rect x="97.89" y="97.89" width="15.84" height="15.84" rx="2.85" fill="#1D2538"/>
  <rect x="125.20" y="97.89" width="15.84" height="15.84" rx="2.85" fill="#1D2538"/>
  <rect x="152.51" y="97.89" width="15.84" height="15.84" rx="2.85" fill="#1D2538"/>
  <rect x="179.81" y="97.89" width="15.84" height="15.84" rx="2.85" fill="#1D2538"/>
  <rect x="207.12" y="97.89" width="15.84" height="15.84" rx="2.85" fill="#1D2538"/>
  <rect x="234.43" y="97.89" width="15.84" height="15.84" rx="2.85" fill="#1D2538"/>
  <rect x="261.73" y="97.89" width="15.84" height="15.84" rx="2.85" fill="#1D2538"/>
  <rect x="289.04" y="97.89" width="15.84" height="15.84" rx="2.85" fill="#1D2538"/>
  <rect x="316.35" y="97.89" width="15.84" height="15.84" rx="2.85" fill="#1D2538"/>
  <rect x="343.65" y="97.89" width="15.84" height="15.84" rx="2.85" fill="#1D2538"/>
  <rect x="370.96" y="97.89" width="15.84" height="15.84" rx="2.85" fill="#1D2538"/>
  <rect x="398.27" y="97.89" width="15.84" height="15.84" rx="2.85" fill="#1D2538"/>
  <rect x="97.89" y="125.20" width="15.84" height="15.84" rx="2.85" fill="#1D2538"/>
  <rect x="125.20" y="125.20" width="15.84" height="15.84" rx="2.85" fill="#1D2538"/>
  <rect x="152.51" y="125.20" width="15.84" height="15.84" rx="2.85" fill="#1D2538"/>
  <rect x="179.81" y="125.20" width="15.84" height="15.84" rx="2.85" fill="#1D2538"/>
  <rect x="207.12" y="125.20" width="15.84" height="15.84" rx="2.85" fill="#1D2538"/>
  <rect x="234.43" y="125.20" width="15.84" height="15.84" rx="2.85" fill="#1D2538"/>
  <rect x="261.73" y="125.20" width="15.84" height="15.84" rx="2.85" fill="#1D2538"/>
  <rect x="289.04" y="125.20" width="15.84" height="15.84" rx="2.85" fill="#1D2538"/>
  <rect x="316.35" y="125.20" width="15.84" height="15.84" rx="2.85" fill="#1D2538"/>
  <rect x="343.65" y="125.20" width="15.84" height="15.84" rx="2.85" fill="#1D2538"/>
  <rect x="370.96" y="125.20" width="15.84" height="15.84" rx="2.85" fill="#1D2538"/>
  <rect x="398.27" y="125.20" width="15.84" height="15.84" rx="2.85" fill="#1D2538"/>
  <rect x="97.89" y="152.51" width="15.84" height="15.84" rx="2.85" fill="#1D2538"/>
  <rect x="125.20" y="152.51" width="15.84" height="15.84" rx="2.85" fill="#1D2538"/>
  <rect x="152.51" y="152.51" width="15.84" height="15.84" rx="2.85" fill="#1D2538"/>
  <rect x="179.81" y="152.51" width="15.84" height="15.84" rx="2.85" fill="#1D2538"/>
  <rect x="207.12" y="152.51" width="15.84" height="15.84" rx="2.85" fill="#1D2538"/>
  <rect x="234.43" y="152.51" width="15.84" height="15.84" rx="2.85" fill="#1D2538"/>
  <rect x="261.73" y="152.51" width="15.84" height="15.84" rx="2.85" fill="#1D2538"/>
  <rect x="289.04" y="152.51" width="15.84" height="15.84" rx="2.85" fill="#1D2538"/>
  <rect x="316.35" y="152.51" width="15.84" height="15.84" rx="2.85" fill="#1D2538"/>
  <rect x="343.65" y="152.51" width="15.84" height="15.84" rx="2.85" fill="#1D2538"/>
  <rect x="370.96" y="152.51" width="15.84" height="15.84" rx="2.85" fill="#1D2538"/>
  <rect x="398.27" y="152.51" width="15.84" height="15.84" rx="2.85" fill="#1D2538"/>
  <rect x="97.89" y="179.81" width="15.84" height="15.84" rx="2.85" fill="#1D2538"/>
  <rect x="125.20" y="179.81" width="15.84" height="15.84" rx="2.85" fill="#1D2538"/>
  <rect x="152.51" y="179.81" width="15.84" height="15.84" rx="2.85" fill="#1D2538"/>
  <rect x="179.81" y="179.81" width="15.84" height="15.84" rx="2.85" fill="#1D2538"/>
  <rect x="207.12" y="179.81" width="15.84" height="15.84" rx="2.85" fill="#1D2538"/>
  <rect x="234.43" y="179.81" width="15.84" height="15.84" rx="2.85" fill="#15803D"/>
  <rect x="261.73" y="179.81" width="15.84" height="15.84" rx="2.85" fill="#15803D"/>
  <rect x="289.04" y="179.81" width="15.84" height="15.84" rx="2.85" fill="#1D2538"/>
  <rect x="316.35" y="179.81" width="15.84" height="15.84" rx="2.85" fill="#1D2538"/>
  <rect x="343.65" y="179.81" width="15.84" height="15.84" rx="2.85" fill="#1D2538"/>
  <rect x="370.96" y="179.81" width="15.84" height="15.84" rx="2.85" fill="#1D2538"/>
  <rect x="398.27" y="179.81" width="15.84" height="15.84" rx="2.85" fill="#1D2538"/>
  <rect x="97.89" y="207.12" width="15.84" height="15.84" rx="2.85" fill="#1D2538"/>
  <rect x="125.20" y="207.12" width="15.84" height="15.84" rx="2.85" fill="#1D2538"/>
  <rect x="152.51" y="207.12" width="15.84" height="15.84" rx="2.85" fill="#1D2538"/>
  <rect x="179.81" y="207.12" width="15.84" height="15.84" rx="2.85" fill="#1D2538"/>
  <rect x="207.12" y="207.12" width="15.84" height="15.84" rx="2.85" fill="#1D2538"/>
  <rect x="234.43" y="207.12" width="15.84" height="15.84" rx="2.85" fill="#15803D"/>
  <rect x="261.73" y="207.12" width="15.84" height="15.84" rx="2.85" fill="#15803D"/>
  <rect x="289.04" y="207.12" width="15.84" height="15.84" rx="2.85" fill="#1D2538"/>
  <rect x="316.35" y="207.12" width="15.84" height="15.84" rx="2.85" fill="#1D2538"/>
  <rect x="343.65" y="207.12" width="15.84" height="15.84" rx="2.85" fill="#1D2538"/>
  <rect x="370.96" y="207.12" width="15.84" height="15.84" rx="2.85" fill="#1D2538"/>
  <rect x="398.27" y="207.12" width="15.84" height="15.84" rx="2.85" fill="#1D2538"/>
  <rect x="97.89" y="234.43" width="15.84" height="15.84" rx="2.85" fill="#1D2538"/>
  <rect x="125.20" y="234.43" width="15.84" height="15.84" rx="2.85" fill="#1D2538"/>
  <rect x="152.51" y="234.43" width="15.84" height="15.84" rx="2.85" fill="#1D2538"/>
  <rect x="179.81" y="234.43" width="15.84" height="15.84" rx="2.85" fill="#1D2538"/>
  <rect x="207.12" y="234.43" width="15.84" height="15.84" rx="2.85" fill="#1D2538"/>
  <rect x="234.43" y="234.43" width="15.84" height="15.84" rx="2.85" fill="#21B658"/>
  <rect x="261.73" y="234.43" width="15.84" height="15.84" rx="2.85" fill="#21B658"/>
  <rect x="289.04" y="234.43" width="15.84" height="15.84" rx="2.85" fill="#1D2538"/>
  <rect x="316.35" y="234.43" width="15.84" height="15.84" rx="2.85" fill="#1D2538"/>
  <rect x="343.65" y="234.43" width="15.84" height="15.84" rx="2.85" fill="#1D2538"/>
  <rect x="370.96" y="234.43" width="15.84" height="15.84" rx="2.85" fill="#1D2538"/>
  <rect x="398.27" y="234.43" width="15.84" height="15.84" rx="2.85" fill="#1D2538"/>
  <rect x="97.89" y="261.73" width="15.84" height="15.84" rx="2.85" fill="#1D2538"/>
  <rect x="125.20" y="261.73" width="15.84" height="15.84" rx="2.85" fill="#1D2538"/>
  <rect x="152.51" y="261.73" width="15.84" height="15.84" rx="2.85" fill="#1D2538"/>
  <rect x="179.81" y="261.73" width="15.84" height="15.84" rx="2.85" fill="#1D2538"/>
  <rect x="207.12" y="261.73" width="15.84" height="15.84" rx="2.85" fill="#1D2538"/>
  <rect x="234.43" y="261.73" width="15.84" height="15.84" rx="2.85" fill="#21B658"/>
  <rect x="261.73" y="261.73" width="15.84" height="15.84" rx="2.85" fill="#21B658"/>
  <rect x="289.04" y="261.73" width="15.84" height="15.84" rx="2.85" fill="#1D2538"/>
  <rect x="316.35" y="261.73" width="15.84" height="15.84" rx="2.85" fill="#1D2538"/>
  <rect x="343.65" y="261.73" width="15.84" height="15.84" rx="2.85" fill="#1D2538"/>
  <rect x="370.96" y="261.73" width="15.84" height="15.84" rx="2.85" fill="#1D2538"/>
  <rect x="398.27" y="261.73" width="15.84" height="15.84" rx="2.85" fill="#1D2538"/>
  <rect x="97.89" y="289.04" width="15.84" height="15.84" rx="2.85" fill="#1D2538"/>
  <rect x="125.20" y="289.04" width="15.84" height="15.84" rx="2.85" fill="#1D2538"/>
  <rect x="152.51" y="289.04" width="15.84" height="15.84" rx="2.85" fill="#1D2538"/>
  <rect x="179.81" y="289.04" width="15.84" height="15.84" rx="2.85" fill="#1D2538"/>
  <rect x="207.12" y="289.04" width="15.84" height="15.84" rx="2.85" fill="#1D2538"/>
  <rect x="234.43" y="289.04" width="15.84" height="15.84" rx="2.85" fill="#3DDC84"/>
  <rect x="261.73" y="289.04" width="15.84" height="15.84" rx="2.85" fill="#3DDC84"/>
  <rect x="289.04" y="289.04" width="15.84" height="15.84" rx="2.85" fill="#1D2538"/>
  <rect x="316.35" y="289.04" width="15.84" height="15.84" rx="2.85" fill="#1D2538"/>
  <rect x="343.65" y="289.04" width="15.84" height="15.84" rx="2.85" fill="#1D2538"/>
  <rect x="370.96" y="289.04" width="15.84" height="15.84" rx="2.85" fill="#1D2538"/>
  <rect x="398.27" y="289.04" width="15.84" height="15.84" rx="2.85" fill="#1D2538"/>
  <rect x="97.89" y="316.35" width="15.84" height="15.84" rx="2.85" fill="#1D2538"/>
  <rect x="125.20" y="316.35" width="15.84" height="15.84" rx="2.85" fill="#1D2538"/>
  <rect x="152.51" y="316.35" width="15.84" height="15.84" rx="2.85" fill="#1D2538"/>
  <rect x="179.81" y="316.35" width="15.84" height="15.84" rx="2.85" fill="#1D2538"/>
  <rect x="207.12" y="316.35" width="15.84" height="15.84" rx="2.85" fill="#1D2538"/>
  <rect x="234.43" y="316.35" width="15.84" height="15.84" rx="2.85" fill="#3DDC84"/>
  <rect x="261.73" y="316.35" width="15.84" height="15.84" rx="2.85" fill="#3DDC84"/>
  <rect x="289.04" y="316.35" width="15.84" height="15.84" rx="2.85" fill="#1D2538"/>
  <rect x="316.35" y="316.35" width="15.84" height="15.84" rx="2.85" fill="#1D2538"/>
  <rect x="343.65" y="316.35" width="15.84" height="15.84" rx="2.85" fill="#1D2538"/>
  <rect x="370.96" y="316.35" width="15.84" height="15.84" rx="2.85" fill="#1D2538"/>
  <rect x="398.27" y="316.35" width="15.84" height="15.84" rx="2.85" fill="#1D2538"/>
  <rect x="97.89" y="343.65" width="15.84" height="15.84" rx="2.85" fill="#1D2538"/>
  <rect x="125.20" y="343.65" width="15.84" height="15.84" rx="2.85" fill="#1D2538"/>
  <rect x="152.51" y="343.65" width="15.84" height="15.84" rx="2.85" fill="#1D2538"/>
  <rect x="179.81" y="343.65" width="15.84" height="15.84" rx="2.85" fill="#1D2538"/>
  <rect x="207.12" y="343.65" width="15.84" height="15.84" rx="2.85" fill="#1D2538"/>
  <rect x="234.43" y="343.65" width="15.84" height="15.84" rx="2.85" fill="#3DDC84"/>
  <rect x="261.73" y="343.65" width="15.84" height="15.84" rx="2.85" fill="#3DDC84"/>
  <rect x="289.04" y="343.65" width="15.84" height="15.84" rx="2.85" fill="#1D2538"/>
  <rect x="316.35" y="343.65" width="15.84" height="15.84" rx="2.85" fill="#1D2538"/>
  <rect x="343.65" y="343.65" width="15.84" height="15.84" rx="2.85" fill="#1D2538"/>
  <rect x="370.96" y="343.65" width="15.84" height="15.84" rx="2.85" fill="#1D2538"/>
  <rect x="398.27" y="343.65" width="15.84" height="15.84" rx="2.85" fill="#1D2538"/>
  <rect x="97.89" y="370.96" width="15.84" height="15.84" rx="2.85" fill="#1D2538"/>
  <rect x="125.20" y="370.96" width="15.84" height="15.84" rx="2.85" fill="#1D2538"/>
  <rect x="152.51" y="370.96" width="15.84" height="15.84" rx="2.85" fill="#1D2538"/>
  <rect x="179.81" y="370.96" width="15.84" height="15.84" rx="2.85" fill="#1D2538"/>
  <rect x="207.12" y="370.96" width="15.84" height="15.84" rx="2.85" fill="#1D2538"/>
  <rect x="234.43" y="370.96" width="15.84" height="15.84" rx="2.85" fill="#1D2538"/>
  <rect x="261.73" y="370.96" width="15.84" height="15.84" rx="2.85" fill="#1D2538"/>
  <rect x="289.04" y="370.96" width="15.84" height="15.84" rx="2.85" fill="#1D2538"/>
  <rect x="316.35" y="370.96" width="15.84" height="15.84" rx="2.85" fill="#1D2538"/>
  <rect x="343.65" y="370.96" width="15.84" height="15.84" rx="2.85" fill="#1D2538"/>
  <rect x="370.96" y="370.96" width="15.84" height="15.84" rx="2.85" fill="#1D2538"/>
  <rect x="398.27" y="370.96" width="15.84" height="15.84" rx="2.85" fill="#1D2538"/>
  <rect x="97.89" y="398.27" width="15.84" height="15.84" rx="2.85" fill="#1D2538"/>
  <rect x="125.20" y="398.27" width="15.84" height="15.84" rx="2.85" fill="#1D2538"/>
  <rect x="152.51" y="398.27" width="15.84" height="15.84" rx="2.85" fill="#1D2538"/>
  <rect x="179.81" y="398.27" width="15.84" height="15.84" rx="2.85" fill="#1D2538"/>
  <rect x="207.12" y="398.27" width="15.84" height="15.84" rx="2.85" fill="#1D2538"/>
  <rect x="234.43" y="398.27" width="15.84" height="15.84" rx="2.85" fill="#1D2538"/>
  <rect x="261.73" y="398.27" width="15.84" height="15.84" rx="2.85" fill="#1D2538"/>
  <rect x="289.04" y="398.27" width="15.84" height="15.84" rx="2.85" fill="#1D2538"/>
  <rect x="316.35" y="398.27" width="15.84" height="15.84" rx="2.85" fill="#1D2538"/>
  <rect x="343.65" y="398.27" width="15.84" height="15.84" rx="2.85" fill="#1D2538"/>
  <rect x="370.96" y="398.27" width="15.84" height="15.84" rx="2.85" fill="#1D2538"/>
  <rect x="398.27" y="398.27" width="15.84" height="15.84" rx="2.85" fill="#1D2538"/>
</svg>