<svg xmlns="http://www.w3.org/2000/svg" viewBox="0 0 1200 630" width="1200" height="630">
  <!-- Background -->
  <rect width="1200" height="630" fill="#05081A"/>

  <!-- Subtle vignette gradient -->
  <defs>
    <radialGradient id="vignette" cx="50%" cy="40%" r="60%">
      <stop offset="0%" stop-color="#0A1024" stop-opacity="1"/>
      <stop offset="100%" stop-color="#05081A" stop-opacity="1"/>
    </radialGradient>
  </defs>
  <rect width="1200" height="630" fill="url(#vignette)"/>

  <!-- Icon -->
  <g transform="translate(80, 100)">
    <svg width="200" height="200" viewBox="0 0 200 200">
      <rect width="200" height="200" rx="36.00" fill="#05081A"/>
  <rect x="15.56" y="15.56" width="8.46" height="8.46" rx="1.52" fill="#1D2538"/>
  <rect x="30.15" y="15.56" width="8.46" height="8.46" rx="1.52" fill="#1D2538"/>
  <rect x="44.73" y="15.56" width="8.46" height="8.46" rx="1.52" fill="#1D2538"/>
  <rect x="59.31" y="15.56" width="8.46" height="8.46" rx="1.52" fill="#1D2538"/>
  <rect x="73.90" y="15.56" width="8.46" height="8.46" rx="1.52" fill="#1D2538"/>
  <rect x="88.48" y="15.56" width="8.46" height="8.46" rx="1.52" fill="#1D2538"/>
  <rect x="103.06" y="15.56" width="8.46" height="8.46" rx="1.52" fill="#1D2538"/>
  <rect x="117.65" y="15.56" width="8.46" height="8.46" rx="1.52" fill="#1D2538"/>
  <rect x="132.23" y="15.56" width="8.46" height="8.46" rx="1.52" fill="#1D2538"/>
  <rect x="146.81" y="15.56" width="8.46" height="8.46" rx="1.52" fill="#1D2538"/>
  <rect x="161.40" y="15.56" width="8.46" height="8.46" rx="1.52" fill="#1D2538"/>
  <rect x="175.98" y="15.56" width="8.46" height="8.46" rx="1.52" fill="#1D2538"/>
  <rect x="15.56" y="30.15" width="8.46" height="8.46" rx="1.52" fill="#1D2538"/>
  <rect x="30.15" y="30.15" width="8.46" height="8.46" rx="1.52" fill="#1D2538"/>
  <rect x="44.73" y="30.15" width="8.46" height="8.46" rx="1.52" fill="#1D2538"/>
  <rect x="59.31" y="30.15" width="8.46" height="8.46" rx="1.52" fill="#1D2538"/>
  <rect x="73.90" y="30.15" width="8.46" height="8.46" rx="1.52" fill="#1D2538"/>
  <rect x="88.48" y="30.15" width="8.46" height="8.46" rx="1.52" fill="#1D2538"/>
  <rect x="103.06" y="30.15" width="8.46" height="8.46" rx="1.52" fill="#1D2538"/>
  <rect x="117.65" y="30.15" width="8.46" height="8.46" rx="1.52" fill="#1D2538"/>
  <rect x="132.23" y="30.15" width="8.46" height="8.46" rx="1.52" fill="#1D2538"/>
  <rect x="146.81" y="30.15" width="8.46" height="8.46" rx="1.52" fill="#1D2538"/>
  <rect x="161.40" y="30.15" width="8.46" height="8.46" rx="1.52" fill="#1D2538"/>
  <rect x="175.98" y="30.15" width="8.46" height="8.46" rx="1.52" fill="#1D2538"/>
  <rect x="15.56" y="44.73" width="8.46" height="8.46" rx="1.52" fill="#1D2538"/>
  <rect x="30.15" y="44.73" width="8.46" height="8.46" rx="1.52" fill="#1D2538"/>
  <rect x="44.73" y="44.73" width="8.46" height="8.46" rx="1.52" fill="#1D2538"/>
  <rect x="59.31" y="44.73" width="8.46" height="8.46" rx="1.52" fill="#1D2538"/>
  <rect x="73.90" y="44.73" width="8.46" height="8.46" rx="1.52" fill="#1D2538"/>
  <rect x="88.48" y="44.73" width="8.46" height="8.46" rx="1.52" fill="#1D2538"/>
  <rect x="103.06" y="44.73" width="8.46" height="8.46" rx="1.52" fill="#1D2538"/>
  <rect x="117.65" y="44.73" width="8.46" height="8.46" rx="1.52" fill="#1D2538"/>
  <rect x="132.23" y="44.73" width="8.46" height="8.46" rx="1.52" fill="#1D2538"/>
  <rect x="146.81" y="44.73" width="8.46" height="8.46" rx="1.52" fill="#1D2538"/>
  <rect x="161.40" y="44.73" width="8.46" height="8.46" rx="1.52" fill="#1D2538"/>
  <rect x="175.98" y="44.73" width="8.46" height="8.46" rx="1.52" fill="#1D2538"/>
  <rect x="15.56" y="59.31" width="8.46" height="8.46" rx="1.52" fill="#1D2538"/>
  <rect x="30.15" y="59.31" width="8.46" height="8.46" rx="1.52" fill="#1D2538"/>
  <rect x="44.73" y="59.31" width="8.46" height="8.46" rx="1.52" fill="#1D2538"/>
  <rect x="59.31" y="59.31" width="8.46" height="8.46" rx="1.52" fill="#1D2538"/>
  <rect x="73.90" y="59.31" width="8.46" height="8.46" rx="1.52" fill="#1D2538"/>
  <rect x="88.48" y="59.31" width="8.46" height="8.46" rx="1.52" fill="#15803D"/>
  <rect x="103.06" y="59.31" width="8.46" height="8.46" rx="1.52" fill="#15803D"/>
  <rect x="117.65" y="59.31" width="8.46" height="8.46" rx="1.52" fill="#1D2538"/>
  <rect x="132.23" y="59.31" width="8.46" height="8.46" rx="1.52" fill="#1D2538"/>
  <rect x="146.81" y="59.31" width="8.46" height="8.46" rx="1.52" fill="#1D2538"/>
  <rect x="161.40" y="59.31" width="8.46" height="8.46" rx="1.52" fill="#1D2538"/>
  <rect x="175.98" y="59.31" width="8.46" height="8.46" rx="1.52" fill="#1D2538"/>
  <rect x="15.56" y="73.90" width="8.46" height="8.46" rx="1.52" fill="#1D2538"/>
  <rect x="30.15" y="73.90" width="8.46" height="8.46" rx="1.52" fill="#1D2538"/>
  <rect x="44.73" y="73.90" width="8.46" height="8.46" rx="1.52" fill="#1D2538"/>
  <rect x="59.31" y="73.90" width="8.46" height="8.46" rx="1.52" fill="#1D2538"/>
  <rect x="73.90" y="73.90" width="8.46" height="8.46" rx="1.52" fill="#1D2538"/>
  <rect x="88.48" y="73.90" width="8.46" height="8.46" rx="1.52" fill="#15803D"/>
  <rect x="103.06" y="73.90" width="8.46" height="8.46" rx="1.52" fill="#15803D"/>
  <rect x="117.65" y="73.90" width="8.46" height="8.46" rx="1.52" fill="#1D2538"/>
  <rect x="132.23" y="73.90" width="8.46" height="8.46" rx="1.52" fill="#1D2538"/>
  <rect x="146.81" y="73.90" width="8.46" height="8.46" rx="1.52" fill="#1D2538"/>
  <rect x="161.40" y="73.90" width="8.46" height="8.46" rx="1.52" fill="#1D2538"/>
  <rect x="175.98" y="73.90" width="8.46" height="8.46" rx="1.52" fill="#1D2538"/>
  <rect x="15.56" y="88.48" width="8.46" height="8.46" rx="1.52" fill="#1D2538"/>
  <rect x="30.15" y="88.48" width="8.46" height="8.46" rx="1.52" fill="#1D2538"/>
  <rect x="44.73" y="88.48" width="8.46" height="8.46" rx="1.52" fill="#1D2538"/>
  <rect x="59.31" y="88.48" width="8.46" height="8.46" rx="1.52" fill="#1D2538"/>
  <rect x="73.90" y="88.48" width="8.46" height="8.46" rx="1.52" fill="#1D2538"/>
  <rect x="88.48" y="88.48" width="8.46" height="8.46" rx="1.52" fill="#21B658"/>
  <rect x="103.06" y="88.48" width="8.46" height="8.46" rx="1.52" fill="#21B658"/>
  <rect x="117.65" y="88.48" width="8.46" height="8.46" rx="1.52" fill="#1D2538"/>
  <rect x="132.23" y="88.48" width="8.46" height="8.46" rx="1.52" fill="#1D2538"/>
  <rect x="146.81" y="88.48" width="8.46" height="8.46" rx="1.52" fill="#1D2538"/>
  <rect x="161.40" y="88.48" width="8.46" height="8.46" rx="1.52" fill="#1D2538"/>
  <rect x="175.98" y="88.48" width="8.46" height="8.46" rx="1.52" fill="#1D2538"/>
  <rect x="15.56" y="103.06" width="8.46" height="8.46" rx="1.52" fill="#1D2538"/>
  <rect x="30.15" y="103.06" width="8.46" height="8.46" rx="1.52" fill="#1D2538"/>
  <rect x="44.73" y="103.06" width="8.46" height="8.46" rx="1.52" fill="#1D2538"/>
  <rect x="59.31" y="103.06" width="8.46" height="8.46" rx="1.52" fill="#1D2538"/>
  <rect x="73.90" y="103.06" width="8.46" height="8.46" rx="1.52" fill="#1D2538"/>
  <rect x="88.48" y="103.06" width="8.46" height="8.46" rx="1.52" fill="#21B658"/>
  <rect x="103.06" y="103.06" width="8.46" height="8.46" rx="1.52" fill="#21B658"/>
  <rect x="117.65" y="103.06" width="8.46" height="8.46" rx="1.52" fill="#1D2538"/>
  <rect x="132.23" y="103.06" width="8.46" height="8.46" rx="1.52" fill="#1D2538"/>
  <rect x="146.81" y="103.06" width="8.46" height="8.46" rx="1.52" fill="#1D2538"/>
  <rect x="161.40" y="103.06" width="8.46" height="8.46" rx="1.52" fill="#1D2538"/>
  <rect x="175.98" y="103.06" width="8.46" height="8.46" rx="1.52" fill="#1D2538"/>
  <rect x="15.56" y="117.65" width="8.46" height="8.46" rx="1.52" fill="#1D2538"/>
  <rect x="30.15" y="117.65" width="8.46" height="8.46" rx="1.52" fill="#1D2538"/>
  <rect x="44.73" y="117.65" width="8.46" height="8.46" rx="1.52" fill="#1D2538"/>
  <rect x="59.31" y="117.65" width="8.46" height="8.46" rx="1.52" fill="#1D2538"/>
  <rect x="73.90" y="117.65" width="8.46" height="8.46" rx="1.52" fill="#1D2538"/>
  <rect x="88.48" y="117.65" width="8.46" height="8.46" rx="1.52" fill="#3DDC84"/>
  <rect x="103.06" y="117.65" width="8.46" height="8.46" rx="1.52" fill="#3DDC84"/>
  <rect x="117.65" y="117.65" width="8.46" height="8.46" rx="1.52" fill="#1D2538"/>
  <rect x="132.23" y="117.65" width="8.46" height="8.46" rx="1.52" fill="#1D2538"/>
  <rect x="146.81" y="117.65" width="8.46" height="8.46" rx="1.52" fill="#1D2538"/>
  <rect x="161.40" y="117.65" width="8.46" height="8.46" rx="1.52" fill="#1D2538"/>
  <rect x="175.98" y="117.65" width="8.46" height="8.46" rx="1.52" fill="#1D2538"/>
  <rect x="15.56" y="132.23" width="8.46" height="8.46" rx="1.52" fill="#1D2538"/>
  <rect x="30.15" y="132.23" width="8.46" height="8.46" rx="1.52" fill="#1D2538"/>
  <rect x="44.73" y="132.23" width="8.46" height="8.46" rx="1.52" fill="#1D2538"/>
  <rect x="59.31" y="132.23" width="8.46" height="8.46" rx="1.52" fill="#1D2538"/>
  <rect x="73.90" y="132.23" width="8.46" height="8.46" rx="1.52" fill="#1D2538"/>
  <rect x="88.48" y="132.23" width="8.46" height="8.46" rx="1.52" fill="#3DDC84"/>
  <rect x="103.06" y="132.23" width="8.46" height="8.46" rx="1.52" fill="#3DDC84"/>
  <rect x="117.65" y="132.23" width="8.46" height="8.46" rx="1.52" fill="#1D2538"/>
  <rect x="132.23" y="132.23" width="8.46" height="8.46" rx="1.52" fill="#1D2538"/>
  <rect x="146.81" y="132.23" width="8.46" height="8.46" rx="1.52" fill="#1D2538"/>
  <rect x="161.40" y="132.23" width="8.46" height="8.46" rx="1.52" fill="#1D2538"/>
  <rect x="175.98" y="132.23" width="8.46" height="8.46" rx="1.52" fill="#1D2538"/>
  <rect x="15.56" y="146.81" width="8.46" height="8.46" rx="1.52" fill="#1D2538"/>
  <rect x="30.15" y="146.81" width="8.46" height="8.46" rx="1.52" fill="#1D2538"/>
  <rect x="44.73" y="146.81" width="8.46" height="8.46" rx="1.52" fill="#1D2538"/>
  <rect x="59.31" y="146.81" width="8.46" height="8.46" rx="1.52" fill="#1D2538"/>
  <rect x="73.90" y="146.81" width="8.46" height="8.46" rx="1.52" fill="#1D2538"/>
  <rect x="88.48" y="146.81" width="8.46" height="8.46" rx="1.52" fill="#3DDC84"/>
  <rect x="103.06" y="146.81" width="8.46" height="8.46" rx="1.52" fill="#3DDC84"/>
  <rect x="117.65" y="146.81" width="8.46" height="8.46" rx="1.52" fill="#1D2538"/>
  <rect x="132.23" y="146.81" width="8.46" height="8.46" rx="1.52" fill="#1D2538"/>
  <rect x="146.81" y="146.81" width="8.46" height="8.46" rx="1.52" fill="#1D2538"/>
  <rect x="161.40" y="146.81" width="8.46" height="8.46" rx="1.52" fill="#1D2538"/>
  <rect x="175.98" y="146.81" width="8.46" height="8.46" rx="1.52" fill="#1D2538"/>
  <rect x="15.56" y="161.40" width="8.46" height="8.46" rx="1.52" fill="#1D2538"/>
  <rect x="30.15" y="161.40" width="8.46" height="8.46" rx="1.52" fill="#1D2538"/>
  <rect x="44.73" y="161.40" width="8.46" height="8.46" rx="1.52" fill="#1D2538"/>
  <rect x="59.31" y="161.40" width="8.46" height="8.46" rx="1.52" fill="#1D2538"/>
  <rect x="73.90" y="161.40" width="8.46" height="8.46" rx="1.52" fill="#1D2538"/>
  <rect x="88.48" y="161.40" width="8.46" height="8.46" rx="1.52" fill="#1D2538"/>
  <rect x="103.06" y="161.40" width="8.46" height="8.46" rx="1.52" fill="#1D2538"/>
  <rect x="117.65" y="161.40" width="8.46" height="8.46" rx="1.52" fill="#1D2538"/>
  <rect x="132.23" y="161.40" width="8.46" height="8.46" rx="1.52" fill="#1D2538"/>
  <rect x="146.81" y="161.40" width="8.46" height="8.46" rx="1.52" fill="#1D2538"/>
  <rect x="161.40" y="161.40" width="8.46" height="8.46" rx="1.52" fill="#1D2538"/>
  <rect x="175.98" y="161.40" width="8.46" height="8.46" rx="1.52" fill="#1D2538"/>
  <rect x="15.56" y="175.98" width="8.46" height="8.46" rx="1.52" fill="#1D2538"/>
  <rect x="30.15" y="175.98" width="8.46" height="8.46" rx="1.52" fill="#1D2538"/>
  <rect x="44.73" y="175.98" width="8.46" height="8.46" rx="1.52" fill="#1D2538"/>
  <rect x="59.31" y="175.98" width="8.46" height="8.46" rx="1.52" fill="#1D2538"/>
  <rect x="73.90" y="175.98" width="8.46" height="8.46" rx="1.52" fill="#1D2538"/>
  <rect x="88.48" y="175.98" width="8.46" height="8.46" rx="1.52" fill="#1D2538"/>
  <rect x="103.06" y="175.98" width="8.46" height="8.46" rx="1.52" fill="#1D2538"/>
  <rect x="117.65" y="175.98" width="8.46" height="8.46" rx="1.52" fill="#1D2538"/>
  <rect x="132.23" y="175.98" width="8.46" height="8.46" rx="1.52" fill="#1D2538"/>
  <rect x="146.81" y="175.98" width="8.46" height="8.46" rx="1.52" fill="#1D2538"/>
  <rect x="161.40" y="175.98" width="8.46" height="8.46" rx="1.52" fill="#1D2538"/>
  <rect x="175.98" y="175.98" width="8.46" height="8.46" rx="1.52" fill="#1D2538"/>
    </svg>
  </g>

  <!-- Wordmark -->
  <text x="320" y="200"
        font-family='-apple-system, BlinkMacSystemFont, "Segoe UI", Roboto, "Helvetica Neue", Arial, sans-serif'
        font-size="110"
        font-weight="800"
        letter-spacing="-3"
        fill="#EEF1F8">last</text>
  <text x="540" y="200"
        font-family='-apple-system, BlinkMacSystemFont, "Segoe UI", Roboto, "Helvetica Neue", Arial, sans-serif'
        font-size="110"
        font-weight="800"
        font-style="italic"
        letter-spacing="-2"
        fill="#3DDC84">GLANCE</text>

  <!-- Tagline -->
  <text x="320" y="270"
        font-family='-apple-system, BlinkMacSystemFont, "Segoe UI", Roboto, "Helvetica Neue", Arial, sans-serif'
        font-size="32"
        font-weight="400"
        letter-spacing="-0.5"
        fill="#EEF1F8"
        opacity="0.85">When did you last...?</text>

  <!-- Body line -->
  <text x="80" y="380"
        font-family='-apple-system, BlinkMacSystemFont, "Segoe UI", Roboto, "Helvetica Neue", Arial, sans-serif'
        font-size="26"
        font-weight="400"
        fill="#EEF1F8"
        opacity="0.6">A last-done tracker for the things that matter.</text>
  <text x="80" y="418"
        font-family='-apple-system, BlinkMacSystemFont, "Segoe UI", Roboto, "Helvetica Neue", Arial, sans-serif'
        font-size="26"
        font-weight="400"
        fill="#EEF1F8"
        opacity="0.6">No deadlines. No nagging. Just information.</text>

  <!-- Decorative ribbon at bottom -->
  <rect x="63.00" y="473.00" width="8.29" height="8.29" rx="1.49" fill="#1D2538"/>
  <rect x="77.29" y="473.00" width="8.29" height="8.29" rx="1.49" fill="#1D2538"/>
  <rect x="91.57" y="473.00" width="8.29" height="8.29" rx="1.49" fill="#1D2538"/>
  <rect x="105.86" y="473.00" width="8.29" height="8.29" rx="1.49" fill="#1D2538"/>
  <rect x="120.14" y="473.00" width="8.29" height="8.29" rx="1.49" fill="#1D2538"/>
  <rect x="134.43" y="473.00" width="8.29" height="8.29" rx="1.49" fill="#1D2538"/>
  <rect x="148.71" y="473.00" width="8.29" height="8.29" rx="1.49" fill="#1D2538"/>
  <rect x="163.00" y="473.00" width="8.29" height="8.29" rx="1.49" fill="#1D2538"/>
  <rect x="177.29" y="473.00" width="8.29" height="8.29" rx="1.49" fill="#1D2538"/>
  <rect x="191.57" y="473.00" width="8.29" height="8.29" rx="1.49" fill="#1D2538"/>
  <rect x="205.86" y="473.00" width="8.29" height="8.29" rx="1.49" fill="#1D2538"/>
  <rect x="220.14" y="473.00" width="8.29" height="8.29" rx="1.49" fill="#1D2538"/>
  <rect x="234.43" y="473.00" width="8.29" height="8.29" rx="1.49" fill="#1D2538"/>
  <rect x="248.71" y="473.00" width="8.29" height="8.29" rx="1.49" fill="#1D2538"/>
  <rect x="263.00" y="473.00" width="8.29" height="8.29" rx="1.49" fill="#1D2538"/>
  <rect x="277.29" y="473.00" width="8.29" height="8.29" rx="1.49" fill="#1D2538"/>
  <rect x="291.57" y="473.00" width="8.29" height="8.29" rx="1.49" fill="#1D2538"/>
  <rect x="305.86" y="473.00" width="8.29" height="8.29" rx="1.49" fill="#1D2538"/>
  <rect x="320.14" y="473.00" width="8.29" height="8.29" rx="1.49" fill="#1D2538"/>
  <rect x="334.43" y="473.00" width="8.29" height="8.29" rx="1.49" fill="#1D2538"/>
  <rect x="348.71" y="473.00" width="8.29" height="8.29" rx="1.49" fill="#1D2538"/>
  <rect x="363.00" y="473.00" width="8.29" height="8.29" rx="1.49" fill="#1D2538"/>
  <rect x="377.29" y="473.00" width="8.29" height="8.29" rx="1.49" fill="#1D2538"/>
  <rect x="391.57" y="473.00" width="8.29" height="8.29" rx="1.49" fill="#1D2538"/>
  <rect x="405.86" y="473.00" width="8.29" height="8.29" rx="1.49" fill="#1D2538"/>
  <rect x="420.14" y="473.00" width="8.29" height="8.29" rx="1.49" fill="#1D2538"/>
  <rect x="434.43" y="473.00" width="8.29" height="8.29" rx="1.49" fill="#1D2538"/>
  <rect x="448.71" y="473.00" width="8.29" height="8.29" rx="1.49" fill="#1D2538"/>
  <rect x="463.00" y="473.00" width="8.29" height="8.29" rx="1.49" fill="#1D2538"/>
  <rect x="477.29" y="473.00" width="8.29" height="8.29" rx="1.49" fill="#1D2538"/>
  <rect x="491.57" y="473.00" width="8.29" height="8.29" rx="1.49" fill="#1D2538"/>
  <rect x="505.86" y="473.00" width="8.29" height="8.29" rx="1.49" fill="#1D2538"/>
  <rect x="520.14" y="473.00" width="8.29" height="8.29" rx="1.49" fill="#1D2538"/>
  <rect x="534.43" y="473.00" width="8.29" height="8.29" rx="1.49" fill="#1D2538"/>
  <rect x="548.71" y="473.00" width="8.29" height="8.29" rx="1.49" fill="#1D2538"/>
  <rect x="563.00" y="473.00" width="8.29" height="8.29" rx="1.49" fill="#1D2538"/>
  <rect x="577.29" y="473.00" width="8.29" height="8.29" rx="1.49" fill="#1D2538"/>
  <rect x="591.57" y="473.00" width="8.29" height="8.29" rx="1.49" fill="#1D2538"/>
  <rect x="605.86" y="473.00" width="8.29" height="8.29" rx="1.49" fill="#1D2538"/>
  <rect x="620.14" y="473.00" width="8.29" height="8.29" rx="1.49" fill="#1D2538"/>
  <rect x="634.43" y="473.00" width="8.29" height="8.29" rx="1.49" fill="#1D2538"/>
  <rect x="648.71" y="473.00" width="8.29" height="8.29" rx="1.49" fill="#1D2538"/>
  <rect x="663.00" y="473.00" width="8.29" height="8.29" rx="1.49" fill="#1D2538"/>
  <rect x="677.29" y="473.00" width="8.29" height="8.29" rx="1.49" fill="#1D2538"/>
  <rect x="691.57" y="473.00" width="8.29" height="8.29" rx="1.49" fill="#1D2538"/>
  <rect x="705.86" y="473.00" width="8.29" height="8.29" rx="1.49" fill="#1D2538"/>
  <rect x="720.14" y="473.00" width="8.29" height="8.29" rx="1.49" fill="#1D2538"/>
  <rect x="734.43" y="473.00" width="8.29" height="8.29" rx="1.49" fill="#1D2538"/>
  <rect x="748.71" y="473.00" width="8.29" height="8.29" rx="1.49" fill="#1D2538"/>
  <rect x="763.00" y="473.00" width="8.29" height="8.29" rx="1.49" fill="#1D2538"/>
  <rect x="63.00" y="487.29" width="8.29" height="8.29" rx="1.49" fill="#1D2538"/>
  <rect x="77.29" y="487.29" width="8.29" height="8.29" rx="1.49" fill="#1D2538"/>
  <rect x="91.57" y="487.29" width="8.29" height="8.29" rx="1.49" fill="#1D2538"/>
  <rect x="105.86" y="487.29" width="8.29" height="8.29" rx="1.49" fill="#1D2538"/>
  <rect x="120.14" y="487.29" width="8.29" height="8.29" rx="1.49" fill="#1D2538"/>
  <rect x="134.43" y="487.29" width="8.29" height="8.29" rx="1.49" fill="#1D2538"/>
  <rect x="148.71" y="487.29" width="8.29" height="8.29" rx="1.49" fill="#1D2538"/>
  <rect x="163.00" y="487.29" width="8.29" height="8.29" rx="1.49" fill="#1D2538"/>
  <rect x="177.29" y="487.29" width="8.29" height="8.29" rx="1.49" fill="#1D2538"/>
  <rect x="191.57" y="487.29" width="8.29" height="8.29" rx="1.49" fill="#1D2538"/>
  <rect x="205.86" y="487.29" width="8.29" height="8.29" rx="1.49" fill="#1D2538"/>
  <rect x="220.14" y="487.29" width="8.29" height="8.29" rx="1.49" fill="#1D2538"/>
  <rect x="234.43" y="487.29" width="8.29" height="8.29" rx="1.49" fill="#1D2538"/>
  <rect x="248.71" y="487.29" width="8.29" height="8.29" rx="1.49" fill="#1D2538"/>
  <rect x="263.00" y="487.29" width="8.29" height="8.29" rx="1.49" fill="#1D2538"/>
  <rect x="277.29" y="487.29" width="8.29" height="8.29" rx="1.49" fill="#1D2538"/>
  <rect x="291.57" y="487.29" width="8.29" height="8.29" rx="1.49" fill="#1D2538"/>
  <rect x="305.86" y="487.29" width="8.29" height="8.29" rx="1.49" fill="#1D2538"/>
  <rect x="320.14" y="487.29" width="8.29" height="8.29" rx="1.49" fill="#1D2538"/>
  <rect x="334.43" y="487.29" width="8.29" height="8.29" rx="1.49" fill="#1D2538"/>
  <rect x="348.71" y="487.29" width="8.29" height="8.29" rx="1.49" fill="#1D2538"/>
  <rect x="363.00" y="487.29" width="8.29" height="8.29" rx="1.49" fill="#1D2538"/>
  <rect x="377.29" y="487.29" width="8.29" height="8.29" rx="1.49" fill="#1D2538"/>
  <rect x="391.57" y="487.29" width="8.29" height="8.29" rx="1.49" fill="#1D2538"/>
  <rect x="405.86" y="487.29" width="8.29" height="8.29" rx="1.49" fill="#1D2538"/>
  <rect x="420.14" y="487.29" width="8.29" height="8.29" rx="1.49" fill="#1D2538"/>
  <rect x="434.43" y="487.29" width="8.29" height="8.29" rx="1.49" fill="#1D2538"/>
  <rect x="448.71" y="487.29" width="8.29" height="8.29" rx="1.49" fill="#1D2538"/>
  <rect x="463.00" y="487.29" width="8.29" height="8.29" rx="1.49" fill="#1D2538"/>
  <rect x="477.29" y="487.29" width="8.29" height="8.29" rx="1.49" fill="#1D2538"/>
  <rect x="491.57" y="487.29" width="8.29" height="8.29" rx="1.49" fill="#1D2538"/>
  <rect x="505.86" y="487.29" width="8.29" height="8.29" rx="1.49" fill="#1D2538"/>
  <rect x="520.14" y="487.29" width="8.29" height="8.29" rx="1.49" fill="#1D2538"/>
  <rect x="534.43" y="487.29" width="8.29" height="8.29" rx="1.49" fill="#1D2538"/>
  <rect x="548.71" y="487.29" width="8.29" height="8.29" rx="1.49" fill="#1D2538"/>
  <rect x="563.00" y="487.29" width="8.29" height="8.29" rx="1.49" fill="#1D2538"/>
  <rect x="577.29" y="487.29" width="8.29" height="8.29" rx="1.49" fill="#1D2538"/>
  <rect x="591.57" y="487.29" width="8.29" height="8.29" rx="1.49" fill="#1D2538"/>
  <rect x="605.86" y="487.29" width="8.29" height="8.29" rx="1.49" fill="#15803D"/>
  <rect x="620.14" y="487.29" width="8.29" height="8.29" rx="1.49" fill="#1D2538"/>
  <rect x="634.43" y="487.29" width="8.29" height="8.29" rx="1.49" fill="#1D2538"/>
  <rect x="648.71" y="487.29" width="8.29" height="8.29" rx="1.49" fill="#1D2538"/>
  <rect x="663.00" y="487.29" width="8.29" height="8.29" rx="1.49" fill="#1D2538"/>
  <rect x="677.29" y="487.29" width="8.29" height="8.29" rx="1.49" fill="#1D2538"/>
  <rect x="691.57" y="487.29" width="8.29" height="8.29" rx="1.49" fill="#21B658"/>
  <rect x="705.86" y="487.29" width="8.29" height="8.29" rx="1.49" fill="#1D2538"/>
  <rect x="720.14" y="487.29" width="8.29" height="8.29" rx="1.49" fill="#1D2538"/>
  <rect x="734.43" y="487.29" width="8.29" height="8.29" rx="1.49" fill="#1D2538"/>
  <rect x="748.71" y="487.29" width="8.29" height="8.29" rx="1.49" fill="#3DDC84"/>
  <rect x="763.00" y="487.29" width="8.29" height="8.29" rx="1.49" fill="#1D2538"/>
  <rect x="63.00" y="501.57" width="8.29" height="8.29" rx="1.49" fill="#1D2538"/>
  <rect x="77.29" y="501.57" width="8.29" height="8.29" rx="1.49" fill="#1D2538"/>
  <rect x="91.57" y="501.57" width="8.29" height="8.29" rx="1.49" fill="#1D2538"/>
  <rect x="105.86" y="501.57" width="8.29" height="8.29" rx="1.49" fill="#1D2538"/>
  <rect x="120.14" y="501.57" width="8.29" height="8.29" rx="1.49" fill="#1D2538"/>
  <rect x="134.43" y="501.57" width="8.29" height="8.29" rx="1.49" fill="#1D2538"/>
  <rect x="148.71" y="501.57" width="8.29" height="8.29" rx="1.49" fill="#1D2538"/>
  <rect x="163.00" y="501.57" width="8.29" height="8.29" rx="1.49" fill="#1D2538"/>
  <rect x="177.29" y="501.57" width="8.29" height="8.29" rx="1.49" fill="#1D2538"/>
  <rect x="191.57" y="501.57" width="8.29" height="8.29" rx="1.49" fill="#1D2538"/>
  <rect x="205.86" y="501.57" width="8.29" height="8.29" rx="1.49" fill="#1D2538"/>
  <rect x="220.14" y="501.57" width="8.29" height="8.29" rx="1.49" fill="#1D2538"/>
  <rect x="234.43" y="501.57" width="8.29" height="8.29" rx="1.49" fill="#1D2538"/>
  <rect x="248.71" y="501.57" width="8.29" height="8.29" rx="1.49" fill="#1D2538"/>
  <rect x="263.00" y="501.57" width="8.29" height="8.29" rx="1.49" fill="#1D2538"/>
  <rect x="277.29" y="501.57" width="8.29" height="8.29" rx="1.49" fill="#1D2538"/>
  <rect x="291.57" y="501.57" width="8.29" height="8.29" rx="1.49" fill="#1D2538"/>
  <rect x="305.86" y="501.57" width="8.29" height="8.29" rx="1.49" fill="#1D2538"/>
  <rect x="320.14" y="501.57" width="8.29" height="8.29" rx="1.49" fill="#1D2538"/>
  <rect x="334.43" y="501.57" width="8.29" height="8.29" rx="1.49" fill="#1D2538"/>
  <rect x="348.71" y="501.57" width="8.29" height="8.29" rx="1.49" fill="#1D2538"/>
  <rect x="363.00" y="501.57" width="8.29" height="8.29" rx="1.49" fill="#1D2538"/>
  <rect x="377.29" y="501.57" width="8.29" height="8.29" rx="1.49" fill="#1D2538"/>
  <rect x="391.57" y="501.57" width="8.29" height="8.29" rx="1.49" fill="#1D2538"/>
  <rect x="405.86" y="501.57" width="8.29" height="8.29" rx="1.49" fill="#1D2538"/>
  <rect x="420.14" y="501.57" width="8.29" height="8.29" rx="1.49" fill="#1D2538"/>
  <rect x="434.43" y="501.57" width="8.29" height="8.29" rx="1.49" fill="#1D2538"/>
  <rect x="448.71" y="501.57" width="8.29" height="8.29" rx="1.49" fill="#1D2538"/>
  <rect x="463.00" y="501.57" width="8.29" height="8.29" rx="1.49" fill="#1D2538"/>
  <rect x="477.29" y="501.57" width="8.29" height="8.29" rx="1.49" fill="#1D2538"/>
  <rect x="491.57" y="501.57" width="8.29" height="8.29" rx="1.49" fill="#1D2538"/>
  <rect x="505.86" y="501.57" width="8.29" height="8.29" rx="1.49" fill="#1D2538"/>
  <rect x="520.14" y="501.57" width="8.29" height="8.29" rx="1.49" fill="#1D2538"/>
  <rect x="534.43" y="501.57" width="8.29" height="8.29" rx="1.49" fill="#1D2538"/>
  <rect x="548.71" y="501.57" width="8.29" height="8.29" rx="1.49" fill="#1D2538"/>
  <rect x="563.00" y="501.57" width="8.29" height="8.29" rx="1.49" fill="#1D2538"/>
  <rect x="577.29" y="501.57" width="8.29" height="8.29" rx="1.49" fill="#1D2538"/>
  <rect x="591.57" y="501.57" width="8.29" height="8.29" rx="1.49" fill="#1D2538"/>
  <rect x="605.86" y="501.57" width="8.29" height="8.29" rx="1.49" fill="#1D2538"/>
  <rect x="620.14" y="501.57" width="8.29" height="8.29" rx="1.49" fill="#1D2538"/>
  <rect x="634.43" y="501.57" width="8.29" height="8.29" rx="1.49" fill="#1D2538"/>
  <rect x="648.71" y="501.57" width="8.29" height="8.29" rx="1.49" fill="#1D2538"/>
  <rect x="663.00" y="501.57" width="8.29" height="8.29" rx="1.49" fill="#1D2538"/>
  <rect x="677.29" y="501.57" width="8.29" height="8.29" rx="1.49" fill="#1D2538"/>
  <rect x="691.57" y="501.57" width="8.29" height="8.29" rx="1.49" fill="#1D2538"/>
  <rect x="705.86" y="501.57" width="8.29" height="8.29" rx="1.49" fill="#21B658"/>
  <rect x="720.14" y="501.57" width="8.29" height="8.29" rx="1.49" fill="#1D2538"/>
  <rect x="734.43" y="501.57" width="8.29" height="8.29" rx="1.49" fill="#1D2538"/>
  <rect x="748.71" y="501.57" width="8.29" height="8.29" rx="1.49" fill="#1D2538"/>
  <rect x="763.00" y="501.57" width="8.29" height="8.29" rx="1.49" fill="#3DDC84"/>
  <rect x="63.00" y="515.86" width="8.29" height="8.29" rx="1.49" fill="#1D2538"/>
  <rect x="77.29" y="515.86" width="8.29" height="8.29" rx="1.49" fill="#1D2538"/>
  <rect x="91.57" y="515.86" width="8.29" height="8.29" rx="1.49" fill="#1D2538"/>
  <rect x="105.86" y="515.86" width="8.29" height="8.29" rx="1.49" fill="#1D2538"/>
  <rect x="120.14" y="515.86" width="8.29" height="8.29" rx="1.49" fill="#1D2538"/>
  <rect x="134.43" y="515.86" width="8.29" height="8.29" rx="1.49" fill="#1D2538"/>
  <rect x="148.71" y="515.86" width="8.29" height="8.29" rx="1.49" fill="#1D2538"/>
  <rect x="163.00" y="515.86" width="8.29" height="8.29" rx="1.49" fill="#1D2538"/>
  <rect x="177.29" y="515.86" width="8.29" height="8.29" rx="1.49" fill="#1D2538"/>
  <rect x="191.57" y="515.86" width="8.29" height="8.29" rx="1.49" fill="#1D2538"/>
  <rect x="205.86" y="515.86" width="8.29" height="8.29" rx="1.49" fill="#1D2538"/>
  <rect x="220.14" y="515.86" width="8.29" height="8.29" rx="1.49" fill="#1D2538"/>
  <rect x="234.43" y="515.86" width="8.29" height="8.29" rx="1.49" fill="#1D2538"/>
  <rect x="248.71" y="515.86" width="8.29" height="8.29" rx="1.49" fill="#1D2538"/>
  <rect x="263.00" y="515.86" width="8.29" height="8.29" rx="1.49" fill="#1D2538"/>
  <rect x="277.29" y="515.86" width="8.29" height="8.29" rx="1.49" fill="#1D2538"/>
  <rect x="291.57" y="515.86" width="8.29" height="8.29" rx="1.49" fill="#1D2538"/>
  <rect x="305.86" y="515.86" width="8.29" height="8.29" rx="1.49" fill="#1D2538"/>
  <rect x="320.14" y="515.86" width="8.29" height="8.29" rx="1.49" fill="#1D2538"/>
  <rect x="334.43" y="515.86" width="8.29" height="8.29" rx="1.49" fill="#1D2538"/>
  <rect x="348.71" y="515.86" width="8.29" height="8.29" rx="1.49" fill="#1D2538"/>
  <rect x="363.00" y="515.86" width="8.29" height="8.29" rx="1.49" fill="#1D2538"/>
  <rect x="377.29" y="515.86" width="8.29" height="8.29" rx="1.49" fill="#1D2538"/>
  <rect x="391.57" y="515.86" width="8.29" height="8.29" rx="1.49" fill="#1D2538"/>
  <rect x="405.86" y="515.86" width="8.29" height="8.29" rx="1.49" fill="#1D2538"/>
  <rect x="420.14" y="515.86" width="8.29" height="8.29" rx="1.49" fill="#1D2538"/>
  <rect x="434.43" y="515.86" width="8.29" height="8.29" rx="1.49" fill="#1D2538"/>
  <rect x="448.71" y="515.86" width="8.29" height="8.29" rx="1.49" fill="#1D2538"/>
  <rect x="463.00" y="515.86" width="8.29" height="8.29" rx="1.49" fill="#1D2538"/>
  <rect x="477.29" y="515.86" width="8.29" height="8.29" rx="1.49" fill="#1D2538"/>
  <rect x="491.57" y="515.86" width="8.29" height="8.29" rx="1.49" fill="#1D2538"/>
  <rect x="505.86" y="515.86" width="8.29" height="8.29" rx="1.49" fill="#1D2538"/>
  <rect x="520.14" y="515.86" width="8.29" height="8.29" rx="1.49" fill="#1D2538"/>
  <rect x="534.43" y="515.86" width="8.29" height="8.29" rx="1.49" fill="#1D2538"/>
  <rect x="548.71" y="515.86" width="8.29" height="8.29" rx="1.49" fill="#1D2538"/>
  <rect x="563.00" y="515.86" width="8.29" height="8.29" rx="1.49" fill="#1D2538"/>
  <rect x="577.29" y="515.86" width="8.29" height="8.29" rx="1.49" fill="#1D2538"/>
  <rect x="591.57" y="515.86" width="8.29" height="8.29" rx="1.49" fill="#1D2538"/>
  <rect x="605.86" y="515.86" width="8.29" height="8.29" rx="1.49" fill="#1D2538"/>
  <rect x="620.14" y="515.86" width="8.29" height="8.29" rx="1.49" fill="#1D2538"/>
  <rect x="634.43" y="515.86" width="8.29" height="8.29" rx="1.49" fill="#1D2538"/>
  <rect x="648.71" y="515.86" width="8.29" height="8.29" rx="1.49" fill="#1D2538"/>
  <rect x="663.00" y="515.86" width="8.29" height="8.29" rx="1.49" fill="#15803D"/>
  <rect x="677.29" y="515.86" width="8.29" height="8.29" rx="1.49" fill="#1D2538"/>
  <rect x="691.57" y="515.86" width="8.29" height="8.29" rx="1.49" fill="#1D2538"/>
  <rect x="705.86" y="515.86" width="8.29" height="8.29" rx="1.49" fill="#1D2538"/>
  <rect x="720.14" y="515.86" width="8.29" height="8.29" rx="1.49" fill="#1D2538"/>
  <rect x="734.43" y="515.86" width="8.29" height="8.29" rx="1.49" fill="#3DDC84"/>
  <rect x="748.71" y="515.86" width="8.29" height="8.29" rx="1.49" fill="#1D2538"/>
  <rect x="763.00" y="515.86" width="8.29" height="8.29" rx="1.49" fill="#1D2538"/>
  <rect x="63.00" y="530.14" width="8.29" height="8.29" rx="1.49" fill="#1D2538"/>
  <rect x="77.29" y="530.14" width="8.29" height="8.29" rx="1.49" fill="#1D2538"/>
  <rect x="91.57" y="530.14" width="8.29" height="8.29" rx="1.49" fill="#1D2538"/>
  <rect x="105.86" y="530.14" width="8.29" height="8.29" rx="1.49" fill="#1D2538"/>
  <rect x="120.14" y="530.14" width="8.29" height="8.29" rx="1.49" fill="#1D2538"/>
  <rect x="134.43" y="530.14" width="8.29" height="8.29" rx="1.49" fill="#1D2538"/>
  <rect x="148.71" y="530.14" width="8.29" height="8.29" rx="1.49" fill="#1D2538"/>
  <rect x="163.00" y="530.14" width="8.29" height="8.29" rx="1.49" fill="#1D2538"/>
  <rect x="177.29" y="530.14" width="8.29" height="8.29" rx="1.49" fill="#1D2538"/>
  <rect x="191.57" y="530.14" width="8.29" height="8.29" rx="1.49" fill="#1D2538"/>
  <rect x="205.86" y="530.14" width="8.29" height="8.29" rx="1.49" fill="#1D2538"/>
  <rect x="220.14" y="530.14" width="8.29" height="8.29" rx="1.49" fill="#1D2538"/>
  <rect x="234.43" y="530.14" width="8.29" height="8.29" rx="1.49" fill="#1D2538"/>
  <rect x="248.71" y="530.14" width="8.29" height="8.29" rx="1.49" fill="#1D2538"/>
  <rect x="263.00" y="530.14" width="8.29" height="8.29" rx="1.49" fill="#1D2538"/>
  <rect x="277.29" y="530.14" width="8.29" height="8.29" rx="1.49" fill="#1D2538"/>
  <rect x="291.57" y="530.14" width="8.29" height="8.29" rx="1.49" fill="#1D2538"/>
  <rect x="305.86" y="530.14" width="8.29" height="8.29" rx="1.49" fill="#1D2538"/>
  <rect x="320.14" y="530.14" width="8.29" height="8.29" rx="1.49" fill="#1D2538"/>
  <rect x="334.43" y="530.14" width="8.29" height="8.29" rx="1.49" fill="#1D2538"/>
  <rect x="348.71" y="530.14" width="8.29" height="8.29" rx="1.49" fill="#1D2538"/>
  <rect x="363.00" y="530.14" width="8.29" height="8.29" rx="1.49" fill="#1D2538"/>
  <rect x="377.29" y="530.14" width="8.29" height="8.29" rx="1.49" fill="#1D2538"/>
  <rect x="391.57" y="530.14" width="8.29" height="8.29" rx="1.49" fill="#1D2538"/>
  <rect x="405.86" y="530.14" width="8.29" height="8.29" rx="1.49" fill="#1D2538"/>
  <rect x="420.14" y="530.14" width="8.29" height="8.29" rx="1.49" fill="#1D2538"/>
  <rect x="434.43" y="530.14" width="8.29" height="8.29" rx="1.49" fill="#1D2538"/>
  <rect x="448.71" y="530.14" width="8.29" height="8.29" rx="1.49" fill="#1D2538"/>
  <rect x="463.00" y="530.14" width="8.29" height="8.29" rx="1.49" fill="#1D2538"/>
  <rect x="477.29" y="530.14" width="8.29" height="8.29" rx="1.49" fill="#1D2538"/>
  <rect x="491.57" y="530.14" width="8.29" height="8.29" rx="1.49" fill="#1D2538"/>
  <rect x="505.86" y="530.14" width="8.29" height="8.29" rx="1.49" fill="#1D2538"/>
  <rect x="520.14" y="530.14" width="8.29" height="8.29" rx="1.49" fill="#1D2538"/>
  <rect x="534.43" y="530.14" width="8.29" height="8.29" rx="1.49" fill="#1D2538"/>
  <rect x="548.71" y="530.14" width="8.29" height="8.29" rx="1.49" fill="#1D2538"/>
  <rect x="563.00" y="530.14" width="8.29" height="8.29" rx="1.49" fill="#1D2538"/>
  <rect x="577.29" y="530.14" width="8.29" height="8.29" rx="1.49" fill="#1D2538"/>
  <rect x="591.57" y="530.14" width="8.29" height="8.29" rx="1.49" fill="#1D2538"/>
  <rect x="605.86" y="530.14" width="8.29" height="8.29" rx="1.49" fill="#1D2538"/>
  <rect x="620.14" y="530.14" width="8.29" height="8.29" rx="1.49" fill="#1D2538"/>
  <rect x="634.43" y="530.14" width="8.29" height="8.29" rx="1.49" fill="#1D2538"/>
  <rect x="648.71" y="530.14" width="8.29" height="8.29" rx="1.49" fill="#1D2538"/>
  <rect x="663.00" y="530.14" width="8.29" height="8.29" rx="1.49" fill="#1D2538"/>
  <rect x="677.29" y="530.14" width="8.29" height="8.29" rx="1.49" fill="#1D2538"/>
  <rect x="691.57" y="530.14" width="8.29" height="8.29" rx="1.49" fill="#1D2538"/>
  <rect x="705.86" y="530.14" width="8.29" height="8.29" rx="1.49" fill="#1D2538"/>
  <rect x="720.14" y="530.14" width="8.29" height="8.29" rx="1.49" fill="#21B658"/>
  <rect x="734.43" y="530.14" width="8.29" height="8.29" rx="1.49" fill="#1D2538"/>
  <rect x="748.71" y="530.14" width="8.29" height="8.29" rx="1.49" fill="#3DDC84"/>
  <rect x="763.00" y="530.14" width="8.29" height="8.29" rx="1.49" fill="#1D2538"/>
  <rect x="63.00" y="544.43" width="8.29" height="8.29" rx="1.49" fill="#1D2538"/>
  <rect x="77.29" y="544.43" width="8.29" height="8.29" rx="1.49" fill="#1D2538"/>
  <rect x="91.57" y="544.43" width="8.29" height="8.29" rx="1.49" fill="#1D2538"/>
  <rect x="105.86" y="544.43" width="8.29" height="8.29" rx="1.49" fill="#1D2538"/>
  <rect x="120.14" y="544.43" width="8.29" height="8.29" rx="1.49" fill="#1D2538"/>
  <rect x="134.43" y="544.43" width="8.29" height="8.29" rx="1.49" fill="#1D2538"/>
  <rect x="148.71" y="544.43" width="8.29" height="8.29" rx="1.49" fill="#1D2538"/>
  <rect x="163.00" y="544.43" width="8.29" height="8.29" rx="1.49" fill="#1D2538"/>
  <rect x="177.29" y="544.43" width="8.29" height="8.29" rx="1.49" fill="#1D2538"/>
  <rect x="191.57" y="544.43" width="8.29" height="8.29" rx="1.49" fill="#1D2538"/>
  <rect x="205.86" y="544.43" width="8.29" height="8.29" rx="1.49" fill="#1D2538"/>
  <rect x="220.14" y="544.43" width="8.29" height="8.29" rx="1.49" fill="#1D2538"/>
  <rect x="234.43" y="544.43" width="8.29" height="8.29" rx="1.49" fill="#1D2538"/>
  <rect x="248.71" y="544.43" width="8.29" height="8.29" rx="1.49" fill="#1D2538"/>
  <rect x="263.00" y="544.43" width="8.29" height="8.29" rx="1.49" fill="#1D2538"/>
  <rect x="277.29" y="544.43" width="8.29" height="8.29" rx="1.49" fill="#1D2538"/>
  <rect x="291.57" y="544.43" width="8.29" height="8.29" rx="1.49" fill="#1D2538"/>
  <rect x="305.86" y="544.43" width="8.29" height="8.29" rx="1.49" fill="#1D2538"/>
  <rect x="320.14" y="544.43" width="8.29" height="8.29" rx="1.49" fill="#1D2538"/>
  <rect x="334.43" y="544.43" width="8.29" height="8.29" rx="1.49" fill="#1D2538"/>
  <rect x="348.71" y="544.43" width="8.29" height="8.29" rx="1.49" fill="#1D2538"/>
  <rect x="363.00" y="544.43" width="8.29" height="8.29" rx="1.49" fill="#1D2538"/>
  <rect x="377.29" y="544.43" width="8.29" height="8.29" rx="1.49" fill="#1D2538"/>
  <rect x="391.57" y="544.43" width="8.29" height="8.29" rx="1.49" fill="#1D2538"/>
  <rect x="405.86" y="544.43" width="8.29" height="8.29" rx="1.49" fill="#1D2538"/>
  <rect x="420.14" y="544.43" width="8.29" height="8.29" rx="1.49" fill="#1D2538"/>
  <rect x="434.43" y="544.43" width="8.29" height="8.29" rx="1.49" fill="#1D2538"/>
  <rect x="448.71" y="544.43" width="8.29" height="8.29" rx="1.49" fill="#1D2538"/>
  <rect x="463.00" y="544.43" width="8.29" height="8.29" rx="1.49" fill="#1D2538"/>
  <rect x="477.29" y="544.43" width="8.29" height="8.29" rx="1.49" fill="#1D2538"/>
  <rect x="491.57" y="544.43" width="8.29" height="8.29" rx="1.49" fill="#1D2538"/>
  <rect x="505.86" y="544.43" width="8.29" height="8.29" rx="1.49" fill="#1D2538"/>
  <rect x="520.14" y="544.43" width="8.29" height="8.29" rx="1.49" fill="#1D2538"/>
  <rect x="534.43" y="544.43" width="8.29" height="8.29" rx="1.49" fill="#1D2538"/>
  <rect x="548.71" y="544.43" width="8.29" height="8.29" rx="1.49" fill="#1D2538"/>
  <rect x="563.00" y="544.43" width="8.29" height="8.29" rx="1.49" fill="#1D2538"/>
  <rect x="577.29" y="544.43" width="8.29" height="8.29" rx="1.49" fill="#1D2538"/>
  <rect x="591.57" y="544.43" width="8.29" height="8.29" rx="1.49" fill="#1D2538"/>
  <rect x="605.86" y="544.43" width="8.29" height="8.29" rx="1.49" fill="#1D2538"/>
  <rect x="620.14" y="544.43" width="8.29" height="8.29" rx="1.49" fill="#1D2538"/>
  <rect x="634.43" y="544.43" width="8.29" height="8.29" rx="1.49" fill="#15803D"/>
  <rect x="648.71" y="544.43" width="8.29" height="8.29" rx="1.49" fill="#1D2538"/>
  <rect x="663.00" y="544.43" width="8.29" height="8.29" rx="1.49" fill="#1D2538"/>
  <rect x="677.29" y="544.43" width="8.29" height="8.29" rx="1.49" fill="#1D2538"/>
  <rect x="691.57" y="544.43" width="8.29" height="8.29" rx="1.49" fill="#1D2538"/>
  <rect x="705.86" y="544.43" width="8.29" height="8.29" rx="1.49" fill="#1D2538"/>
  <rect x="720.14" y="544.43" width="8.29" height="8.29" rx="1.49" fill="#1D2538"/>
  <rect x="734.43" y="544.43" width="8.29" height="8.29" rx="1.49" fill="#1D2538"/>
  <rect x="748.71" y="544.43" width="8.29" height="8.29" rx="1.49" fill="#1D2538"/>
  <rect x="763.00" y="544.43" width="8.29" height="8.29" rx="1.49" fill="#3DDC84"/>
  <rect x="63.00" y="558.71" width="8.29" height="8.29" rx="1.49" fill="#1D2538"/>
  <rect x="77.29" y="558.71" width="8.29" height="8.29" rx="1.49" fill="#1D2538"/>
  <rect x="91.57" y="558.71" width="8.29" height="8.29" rx="1.49" fill="#1D2538"/>
  <rect x="105.86" y="558.71" width="8.29" height="8.29" rx="1.49" fill="#1D2538"/>
  <rect x="120.14" y="558.71" width="8.29" height="8.29" rx="1.49" fill="#1D2538"/>
  <rect x="134.43" y="558.71" width="8.29" height="8.29" rx="1.49" fill="#1D2538"/>
  <rect x="148.71" y="558.71" width="8.29" height="8.29" rx="1.49" fill="#1D2538"/>
  <rect x="163.00" y="558.71" width="8.29" height="8.29" rx="1.49" fill="#1D2538"/>
  <rect x="177.29" y="558.71" width="8.29" height="8.29" rx="1.49" fill="#1D2538"/>
  <rect x="191.57" y="558.71" width="8.29" height="8.29" rx="1.49" fill="#1D2538"/>
  <rect x="205.86" y="558.71" width="8.29" height="8.29" rx="1.49" fill="#1D2538"/>
  <rect x="220.14" y="558.71" width="8.29" height="8.29" rx="1.49" fill="#1D2538"/>
  <rect x="234.43" y="558.71" width="8.29" height="8.29" rx="1.49" fill="#1D2538"/>
  <rect x="248.71" y="558.71" width="8.29" height="8.29" rx="1.49" fill="#1D2538"/>
  <rect x="263.00" y="558.71" width="8.29" height="8.29" rx="1.49" fill="#1D2538"/>
  <rect x="277.29" y="558.71" width="8.29" height="8.29" rx="1.49" fill="#1D2538"/>
  <rect x="291.57" y="558.71" width="8.29" height="8.29" rx="1.49" fill="#1D2538"/>
  <rect x="305.86" y="558.71" width="8.29" height="8.29" rx="1.49" fill="#1D2538"/>
  <rect x="320.14" y="558.71" width="8.29" height="8.29" rx="1.49" fill="#1D2538"/>
  <rect x="334.43" y="558.71" width="8.29" height="8.29" rx="1.49" fill="#1D2538"/>
  <rect x="348.71" y="558.71" width="8.29" height="8.29" rx="1.49" fill="#1D2538"/>
  <rect x="363.00" y="558.71" width="8.29" height="8.29" rx="1.49" fill="#1D2538"/>
  <rect x="377.29" y="558.71" width="8.29" height="8.29" rx="1.49" fill="#1D2538"/>
  <rect x="391.57" y="558.71" width="8.29" height="8.29" rx="1.49" fill="#1D2538"/>
  <rect x="405.86" y="558.71" width="8.29" height="8.29" rx="1.49" fill="#1D2538"/>
  <rect x="420.14" y="558.71" width="8.29" height="8.29" rx="1.49" fill="#1D2538"/>
  <rect x="434.43" y="558.71" width="8.29" height="8.29" rx="1.49" fill="#1D2538"/>
  <rect x="448.71" y="558.71" width="8.29" height="8.29" rx="1.49" fill="#1D2538"/>
  <rect x="463.00" y="558.71" width="8.29" height="8.29" rx="1.49" fill="#1D2538"/>
  <rect x="477.29" y="558.71" width="8.29" height="8.29" rx="1.49" fill="#1D2538"/>
  <rect x="491.57" y="558.71" width="8.29" height="8.29" rx="1.49" fill="#1D2538"/>
  <rect x="505.86" y="558.71" width="8.29" height="8.29" rx="1.49" fill="#1D2538"/>
  <rect x="520.14" y="558.71" width="8.29" height="8.29" rx="1.49" fill="#1D2538"/>
  <rect x="534.43" y="558.71" width="8.29" height="8.29" rx="1.49" fill="#1D2538"/>
  <rect x="548.71" y="558.71" width="8.29" height="8.29" rx="1.49" fill="#1D2538"/>
  <rect x="563.00" y="558.71" width="8.29" height="8.29" rx="1.49" fill="#1D2538"/>
  <rect x="577.29" y="558.71" width="8.29" height="8.29" rx="1.49" fill="#1D2538"/>
  <rect x="591.57" y="558.71" width="8.29" height="8.29" rx="1.49" fill="#1D2538"/>
  <rect x="605.86" y="558.71" width="8.29" height="8.29" rx="1.49" fill="#1D2538"/>
  <rect x="620.14" y="558.71" width="8.29" height="8.29" rx="1.49" fill="#1D2538"/>
  <rect x="634.43" y="558.71" width="8.29" height="8.29" rx="1.49" fill="#1D2538"/>
  <rect x="648.71" y="558.71" width="8.29" height="8.29" rx="1.49" fill="#1D2538"/>
  <rect x="663.00" y="558.71" width="8.29" height="8.29" rx="1.49" fill="#1D2538"/>
  <rect x="677.29" y="558.71" width="8.29" height="8.29" rx="1.49" fill="#1D2538"/>
  <rect x="691.57" y="558.71" width="8.29" height="8.29" rx="1.49" fill="#1D2538"/>
  <rect x="705.86" y="558.71" width="8.29" height="8.29" rx="1.49" fill="#1D2538"/>
  <rect x="720.14" y="558.71" width="8.29" height="8.29" rx="1.49" fill="#1D2538"/>
  <rect x="734.43" y="558.71" width="8.29" height="8.29" rx="1.49" fill="#1D2538"/>
  <rect x="748.71" y="558.71" width="8.29" height="8.29" rx="1.49" fill="#1D2538"/>
  <rect x="763.00" y="558.71" width="8.29" height="8.29" rx="1.49" fill="#1D2538"/>

  <!-- Subtle bottom rule -->
  <line x1="60" y1="450" x2="1140" y2="450" stroke="#1D2538" stroke-width="1"/>
</svg>